<svg width="58" height="48" viewBox="0 0 58 48" fill="none" xmlns="http://www.w3.org/2000/svg">
<path d="M57.0618 14.7429C56.3794 14.0571 55.5549 13.7143 54.5882 13.7143H30.7059V3.51429C30.7059 2.54286 30.3931 1.71429 29.7676 1.02857C29.0853 0.342858 28.2608 0 27.2941 0H23.8824L0 24L23.8824 48H27.2941C28.2608 48 29.0853 47.6857 29.7676 47.0571C30.3931 46.3714 30.7059 45.5429 30.7059 44.5714V34.2857H54.5882C55.5549 34.2857 56.3794 33.9714 57.0618 33.3429C57.6872 32.6571 58 31.8286 58 30.8571V17.2286C58 16.2571 57.6872 15.4286 57.0618 14.7429Z" fill="#16425B"/>
</svg>
