<svg width="40" height="38" viewBox="0 0 40 38" fill="none" xmlns="http://www.w3.org/2000/svg">
<path d="M31 17.625C31 17.2583 30.8625 16.9375 30.5875 16.6625C30.3125 16.3875 29.9917 16.25 29.625 16.25H18.625C18.2354 16.25 17.9031 16.3875 17.6281 16.6625C17.376 16.9375 17.25 17.2698 17.25 17.6594V20.375C17.25 20.7646 17.376 21.0969 17.6281 21.3719C17.9031 21.624 18.2354 21.75 18.625 21.75H29.625C29.9917 21.75 30.3125 21.624 30.5875 21.3719C30.8625 21.0969 31 20.7646 31 20.375V17.625Z" fill="#83BEFF"/>
<path d="M30.5875 13.1219C30.8625 12.8469 31 12.5146 31 12.125V9.375C31 9.00833 30.8625 8.6875 30.5875 8.4125C30.3125 8.1375 29.9917 8 29.625 8H18.625C18.2354 8 17.9031 8.1375 17.6281 8.4125C17.376 8.6875 17.25 9.01979 17.25 9.40938V12.125C17.25 12.5146 17.376 12.8469 17.6281 13.1219C17.9031 13.374 18.2354 13.5 18.625 13.5H29.625C29.9917 13.5 30.3125 13.374 30.5875 13.1219Z" fill="#83BEFF"/>
<path d="M14.0875 13.1219C14.3625 12.8469 14.5 12.5146 14.5 12.125V9.375C14.5 9.00833 14.3625 8.6875 14.0875 8.4125C13.8125 8.1375 13.4917 8 13.125 8H10.375C9.98542 8 9.65312 8.1375 9.37812 8.4125C9.12603 8.6875 9 9.01979 9 9.40938V12.125C9 12.5146 9.12603 12.8469 9.37812 13.1219C9.65312 13.374 9.98542 13.5 10.375 13.5H13.125C13.4917 13.5 13.8125 13.374 14.0875 13.1219Z" fill="#83BEFF"/>
<path d="M14.0875 29.6219C14.3625 29.3469 14.5 29.0146 14.5 28.625V25.875C14.5 25.5083 14.3625 25.1875 14.0875 24.9125C13.8125 24.6375 13.4917 24.5 13.125 24.5H10.375C9.98542 24.5 9.65312 24.6375 9.37812 24.9125C9.12603 25.1875 9 25.5198 9 25.9094V28.625C9 29.0146 9.12603 29.3469 9.37812 29.6219C9.65312 29.874 9.98542 30 10.375 30H13.125C13.4917 30 13.8125 29.874 14.0875 29.6219Z" fill="#83BEFF"/>
<path d="M17.25 28.625C17.25 29.0146 17.376 29.3469 17.6281 29.6219C17.9031 29.874 18.2354 30 18.625 30H29.625C29.9917 30 30.3125 29.874 30.5875 29.6219C30.8625 29.3469 31 29.0146 31 28.625V25.875C31 25.5083 30.8625 25.1875 30.5875 24.9125C30.3125 24.6375 29.9917 24.5 29.625 24.5H18.625C18.2354 24.5 17.9031 24.6375 17.6281 24.9125C17.376 25.1875 17.25 25.5198 17.25 25.9094V28.625Z" fill="#83BEFF"/>
<path d="M14.0875 21.3719C14.3625 21.0969 14.5 20.7646 14.5 20.375V17.625C14.5 17.2583 14.3625 16.9375 14.0875 16.6625C13.8125 16.3875 13.4917 16.25 13.125 16.25H10.375C9.98542 16.25 9.65312 16.3875 9.37812 16.6625C9.12603 16.9375 9 17.2698 9 17.6594V20.375C9 20.7646 9.12603 21.0969 9.37812 21.3719C9.65312 21.624 9.98542 21.75 10.375 21.75H13.125C13.4917 21.75 13.8125 21.624 14.0875 21.3719Z" fill="#83BEFF"/>
</svg>
