<svg width="45" height="53" viewBox="0 0 45 53" fill="none" xmlns="http://www.w3.org/2000/svg">
<path d="M38.4108 25.2578C36.2143 23.1047 33.7767 21.4484 31.0982 20.2891C33.4017 17.9703 34.5536 15.2099 34.5536 12.0078C34.5536 8.69531 33.375 5.87969 31.0178 3.56094C28.7143 1.18698 25.875 0 22.5 0C19.1786 0 16.3661 1.18698 14.0625 3.56094C11.7054 5.87969 10.5268 8.69531 10.5268 12.0078C10.5268 15.2099 11.6518 17.9703 13.9018 20.2891C11.2233 21.4484 8.78568 23.1047 6.58925 25.2578C2.19639 29.6193 0 34.9193 0 41.1578C0.0535714 44.4703 2.24996 47.2583 6.58925 49.5219C10.9821 51.8406 16.2857 53 22.5 53C28.7679 53 34.0715 51.8406 38.4108 49.5219C42.8036 47.2583 45 44.4703 45 41.1578C45 34.9193 42.8036 29.6193 38.4108 25.2578Z" fill="#F1F1F1"/>
</svg>
