<svg width="36" height="37" viewBox="0 0 36 37" fill="none" xmlns="http://www.w3.org/2000/svg">
<path d="M33.3382 2.10986C31.8971 0.703279 30.1642 0 28.1397 0C26.0809 0 24.3309 0.703279 22.8897 2.10986C21.4828 3.55075 20.7794 5.31758 20.7794 7.4103L20.8823 8.59388L13.4706 13.637L13.0588 13.2253C11.6177 11.7844 9.8848 11.064 7.86029 11.064C5.80146 11.064 4.05146 11.7844 2.61028 13.2253C1.20342 14.6662 0.5 16.4159 0.5 18.4743C0.5 20.5327 1.20342 22.2823 2.61028 23.7232C4.05146 25.1641 5.80146 25.8845 7.86029 25.8845C9.8848 25.8845 11.6177 25.1641 13.0588 23.7232L13.1618 23.6203L20.8823 28.509L20.7794 29.5897C20.7794 31.6481 21.4828 33.3978 22.8897 34.8387C24.3309 36.2795 26.0809 37 28.1397 37C30.1642 37 31.8971 36.2795 33.3382 34.8387C34.7794 33.3978 35.5 31.6481 35.5 29.5897C35.5 27.5313 34.7794 25.7816 33.3382 24.3407C31.8971 22.8998 30.1642 22.1794 28.1397 22.1794C26.0809 22.1794 24.3309 22.8998 22.8897 24.3407L22.2721 25.0612L15.0147 20.4298L15.2721 18.4743L15.1177 16.9819L22.3235 11.9903L22.8897 12.6078C24.3309 14.0487 26.0809 14.7691 28.1397 14.7691C30.1642 14.7691 31.8971 14.0487 33.3382 12.6078C34.7794 11.1669 35.5 9.43441 35.5 7.4103C35.5 5.31758 34.7794 3.55075 33.3382 2.10986Z" fill="white"/>
</svg>
