<svg width="78" height="78" viewBox="0 0 78 78" fill="none" xmlns="http://www.w3.org/2000/svg">
<path d="M70.2 55.0875C69.55 58.5 66.7875 61.1 63.375 61.5875C58.0125 62.4 49.075 63.375 39 63.375C29.0875 63.375 20.15 62.4 14.625 61.5875C11.2125 61.1 8.45 58.5 7.8 55.0875C7.15 51.35 6.5 45.825 6.5 39C6.5 32.175 7.15 26.65 7.8 22.9125C8.45 19.5 11.2125 16.9 14.625 16.4125C19.9875 15.6 28.925 14.625 39 14.625C49.075 14.625 57.85 15.6 63.375 16.4125C66.7875 16.9 69.55 19.5 70.2 22.9125C70.85 26.65 71.6625 32.175 71.6625 39C71.5 45.825 70.85 51.35 70.2 55.0875Z" fill="#FF0000"/>
<path d="M32.5 50.375V27.625L52 39L32.5 50.375Z" fill="white"/>
</svg>
