<svg width="138" height="138" viewBox="0 0 138 138" fill="none" xmlns="http://www.w3.org/2000/svg">
<path d="M93.9151 83.0512C94.0413 82.8634 94.1674 82.6758 94.2933 82.4884L94.3342 82.5142L94.2962 82.4841C94.6811 81.9267 95.1629 81.4429 95.7185 81.0556L95.7299 81.1206L95.7103 81.046C95.714 81.0344 95.7205 81.024 95.7294 81.0156C95.7382 81.0073 95.749 81.0013 95.7607 80.9982C95.7725 80.9952 95.7848 80.9951 95.7966 80.9981C95.8084 81.0011 95.8192 81.0071 95.8281 81.0154C95.8908 80.9626 95.9537 80.9107 96.0166 80.859L96.0035 80.8303C96.8658 80.4574 97.6473 79.932 98.5078 79.5451C98.7647 79.3756 99.0704 79.2953 99.3775 79.3168C99.6846 79.3382 99.9761 79.4602 100.207 79.6638C100.352 79.7639 100.518 79.8304 100.693 79.8585C100.867 79.8866 101.045 79.8756 101.215 79.8264C102.712 79.6723 104.208 79.4854 105.709 79.4124C110.201 79.1918 114.696 79.7471 118.999 81.0538C121.963 81.8438 124.844 82.9142 127.605 84.2505C128.797 84.8761 129.827 85.8287 131.207 86.0871C132.056 87.5091 131.493 88.2994 130.063 88.9056C127.002 90.2803 123.712 91.0755 120.361 91.251C115.648 91.5613 110.92 91.5986 106.203 91.3625C103.559 91.1974 100.971 90.533 98.5743 89.4044C97.318 88.7955 96.2553 87.8501 95.5044 86.6732C95.2698 86.3117 95.1812 85.5841 94.4409 85.9784C94.1154 86.095 93.8491 86.3352 93.6996 86.647C93.5501 86.9587 93.5296 87.3168 93.6425 87.6436C93.9367 88.4538 94.4547 89.1639 95.1363 89.6915C97.5838 91.762 100.546 93.1311 103.709 93.6534C107.578 94.204 111.495 94.3406 115.392 94.0611C117.693 93.9697 120 93.9854 122.297 93.7503C123.243 93.5383 124.201 93.3888 125.166 93.303C125.364 93.3086 125.619 93.1964 125.73 93.4042C125.832 93.5962 125.673 93.8057 125.544 93.9611C124.784 94.9311 123.881 95.7804 122.866 96.4797C118.771 99.227 113.937 100.665 109.006 100.604C106.016 100.58 103.035 100.563 100.183 99.4963C96.1779 97.9985 93.1804 95.472 92.1285 91.1761C91.7107 89.3869 91.8597 87.512 92.5548 85.8111C92.564 85.8019 92.5742 85.7905 92.5839 85.7796L92.5508 85.7812C92.6101 85.5858 92.6695 85.3905 92.7287 85.199C92.732 85.3034 92.7572 85.3071 92.8047 85.2141C92.8178 85.1884 92.8308 85.1625 92.8452 85.1376C92.9151 85.0161 93.0285 84.9007 92.8989 84.7512C92.9586 84.6381 93.0183 84.525 93.078 84.412L93.1033 84.456L93.0725 84.4152C93.1347 84.2979 93.197 84.1807 93.259 84.0645C93.2729 84.0686 93.2866 84.0716 93.301 84.0746L93.255 84.052C93.3171 83.9262 93.3793 83.8006 93.441 83.6777C93.7566 83.6741 93.7985 83.5039 93.6986 83.2491L93.9102 83.0445L93.9665 83.0578L93.9151 83.0512Z" fill="#FABC01"/>
<path d="M125.001 92.5377C120.523 92.6148 101.986 92.0572 98.8204 89.7396C95.6553 87.422 101.146 97.782 115.097 95.8873C129.049 93.9927 125.001 92.5377 125.001 92.5377Z" fill="#FF560F"/>
<path d="M125.274 94.4932C120.842 97.0563 112.989 100.43 105.731 99.7394C100.286 99.2214 95.3838 96.0455 91.3652 90.567C91.3652 90.567 94.2419 101.277 108.32 101.492C120.694 101.682 125.274 94.4932 125.274 94.4932Z" fill="#FF560F"/>
<path d="M44.9185 37.1105C47.9802 33.8742 51.4989 31.1032 55.3629 28.8857C55.6035 28.7487 56.0102 28.6614 55.9768 28.328C55.9367 27.9275 55.5101 27.9619 55.2007 27.883C53.1418 27.409 51.2731 26.3269 49.8371 24.7773C49.2012 24.1623 48.7098 23.4137 48.3982 22.5858C48.0867 21.7578 47.9629 20.8709 48.0356 19.9893C48.1084 19.1076 48.3759 18.2531 48.819 17.4874C49.262 16.7217 49.8695 16.0638 50.5976 15.5614C53.0713 13.5994 55.9946 13.0018 59.0628 12.9296C60.6498 12.9055 62.2351 13.0407 63.795 13.3333C67.2145 13.9674 70.5227 15.0985 73.6145 16.6909C76.5074 18.156 79.444 19.5591 81.8862 21.7588C82.192 21.9917 82.5719 22.1061 82.9555 22.0808C86.2932 22.303 89.5926 22.9213 92.7842 23.9226C95.8591 24.8433 98.8264 26.0906 101.636 27.6433C106.3 30.2694 110.538 33.5896 114.204 37.4899C118.083 41.5807 121.335 46.2229 123.855 51.2658C126.017 55.4643 127.321 60.0519 127.69 64.7602C127.908 67.1089 127.948 69.4706 127.809 71.8253C127.762 73.9961 127.458 76.1537 126.904 78.2532C126.784 78.6174 126.956 78.7235 127.178 78.8832C128.058 79.518 128.988 80.0976 129.799 80.8119C131.464 82.1197 132.819 83.7805 133.765 85.6748C134.191 86.4617 134.32 87.3754 134.128 88.2492C133.936 89.123 133.437 89.8988 132.721 90.4353C131.61 91.3224 130.32 91.9571 128.939 92.2955C128.711 92.3621 128.405 92.3166 128.386 92.7229C128.279 94.955 126.909 96.4607 125.323 97.7852C123.458 99.3194 121.297 100.454 118.975 101.12C118 101.38 117.162 102.006 116.636 102.867C115.259 104.855 113.688 106.701 111.946 108.378C106.073 114.509 98.7958 119.117 90.743 121.806C84.2218 123.979 77.3923 125.083 70.5187 125.075C66.1599 125.037 61.8217 124.473 57.5977 123.396C49.981 121.51 42.8297 118.088 36.5819 113.341C33.6366 111.164 30.9834 108.619 28.6874 105.766C28.423 105.418 28.0844 105.134 27.6964 104.934C27.3084 104.734 26.8807 104.623 26.4443 104.609C24.2191 104.32 22.0538 103.68 20.0293 102.713C16.643 101.39 13.4591 99.5992 10.5708 97.3917C7.96671 95.3741 5.89454 92.7514 4.53418 89.7512C3.89206 88.5167 3.6773 87.1043 3.92348 85.7347C4.00217 85.1469 4.24327 84.5927 4.61968 84.1344C4.99608 83.676 5.49287 83.3318 6.0542 83.1404C6.44529 83.0143 6.94025 82.9259 6.71743 82.2489C6.33386 81.1765 6.38939 79.9959 6.87191 78.9643C7.35444 77.9326 8.22491 77.1332 9.29389 76.7402C10.2459 76.3467 11.2643 76.139 12.2944 76.1281C12.8504 76.1281 13.4066 76.1281 14.0677 76.1281C13.8131 75.6085 13.4345 75.1595 12.9652 74.8209C11.2077 73.2705 9.90371 71.2723 9.19213 69.0393C8.46046 66.4021 8.84373 64.0168 10.8828 62.0688C11.4103 61.5649 11.3342 61.2783 10.8689 60.8188C8.80377 58.8459 7.40865 56.2755 6.87962 53.4688C6.44161 51.093 6.61282 48.802 8.35282 46.9061C8.95068 46.2537 9.68626 45.7425 10.5062 45.4097C11.3261 45.0769 12.2099 44.9308 13.0933 44.982C15.9999 45.1635 18.8403 45.9273 21.4459 47.2281C21.7687 47.3722 22.1513 47.5703 22.4322 47.3643C22.7155 47.1565 22.4831 46.7616 22.4394 46.4535C22.03 43.5634 23.4073 41.2934 26.3718 40.2061C27.1287 39.9284 27.0599 39.6586 26.7172 39.1573C25.4738 37.3303 24.7872 35.1819 24.7406 32.9725C24.683 30.9132 24.9365 28.82 27.0075 27.5494C27.9547 26.9573 29.0464 26.6368 30.1634 26.623C31.2803 26.6092 32.3796 26.9025 33.3412 27.4711C35.116 28.476 36.78 29.6651 38.3056 31.0188C40.6937 32.8403 42.9075 34.8797 44.9185 37.1105ZM93.0727 84.4159L93.0782 84.4124L92.8991 84.7519L92.729 85.1954L92.5509 85.7815L92.5552 85.8101C91.8599 87.5114 91.7109 89.3867 92.1287 91.1765C93.1806 95.4723 96.178 97.9988 100.183 99.4967C103.035 100.563 106.016 100.58 109.006 100.605C113.938 100.666 118.771 99.2275 122.867 96.4803C123.882 95.781 124.785 94.9318 125.545 93.9617C125.673 93.8063 125.833 93.5968 125.73 93.4048C125.62 93.1972 125.364 93.3094 125.166 93.3036C124.201 93.3895 123.243 93.5389 122.298 93.7509C120.001 93.986 117.694 93.9703 115.393 94.0617C111.495 94.3412 107.579 94.2046 103.71 93.654C100.547 93.1317 97.5843 91.7626 95.1368 89.6921C94.4552 89.1645 93.9372 88.4544 93.643 87.6442C93.5301 87.3174 93.5506 86.9593 93.7001 86.6476C93.8496 86.3358 94.116 86.0956 94.4414 85.979C95.1817 85.5847 95.2703 86.3123 95.505 86.6738C96.2559 87.8507 97.3186 88.7961 98.5748 89.405C100.971 90.5336 103.56 91.198 106.204 91.3631C110.921 91.5992 115.648 91.5619 120.361 91.2516C123.712 91.0761 127.002 90.2809 130.063 88.9062C131.494 88.3 132.056 87.5097 131.207 86.0877C131.181 85.7498 131.086 85.4207 130.929 85.1208C130.771 84.8208 130.554 84.5562 130.29 84.3432C129.197 83.1824 127.972 82.1537 126.639 81.278C121.894 78.3402 116.625 77.184 111.142 76.8569C107.671 76.5133 104.167 76.9318 100.875 78.0831C99.0912 78.6811 97.4382 79.6135 96.0042 80.8306L96.0171 80.8591C95.897 80.8433 95.8545 80.92 95.8288 81.0167C95.8201 81.0082 95.8093 81.0021 95.7975 80.999C95.7857 80.9958 95.7733 80.9957 95.7615 80.9987C95.7497 81.0017 95.7388 81.0076 95.7299 81.016C95.7211 81.0243 95.7145 81.0348 95.7108 81.0464L95.7191 81.0556C95.1635 81.4432 94.6817 81.9271 94.2967 82.4845L94.2942 82.4885L93.9157 83.0517L93.9105 83.0454L93.6989 83.2503L93.4413 83.676L93.2547 84.0532L93.2591 84.0647L93.0727 84.4159ZM6.21989 86.7743L6.22127 86.7801C6.21023 87.0273 6.15963 87.2825 6.36065 87.4884L6.36985 87.5217C6.3382 87.7586 6.39241 87.9991 6.52266 88.1996L6.53812 88.2478C6.55025 88.4241 6.57868 88.5989 6.62304 88.77C7.77883 92.0162 10.1439 94.2605 12.8765 96.166C15.8397 98.3469 19.1437 100.022 22.6542 101.124C23.4483 101.39 24.2862 101.502 25.1224 101.453C25.1008 101.374 25.0726 101.297 25.0381 101.223C23.3094 98.5331 21.4991 95.8879 20.5251 92.7929C20.4896 92.6161 20.4105 92.4509 20.295 92.3124C20.1794 92.1739 20.0311 92.0665 19.8635 91.9999C18.4943 91.6473 17.4284 90.6996 16.1535 90.1691C13.4947 88.5668 10.9457 86.8038 8.43994 84.9727C7.30558 84.1437 7.06243 84.2459 6.37491 85.5179C6.31695 85.5509 6.27195 85.6027 6.24732 85.6646C6.22269 85.7266 6.21989 85.7952 6.2394 85.8589L6.18208 86.3649C6.13541 86.4253 6.11336 86.5011 6.12037 86.5771C6.12739 86.6531 6.16295 86.7236 6.21989 86.7743ZM8.7463 81.2727C8.72238 81.6013 8.76461 81.9314 8.87048 82.2433C8.97636 82.5553 9.14373 82.8429 9.3627 83.089C11.1031 85.2838 13.4611 86.7399 15.7097 88.3095C16.8845 89.1296 18.2121 89.732 19.6553 90.5359C19.3389 89.5742 19.0603 88.8646 18.8733 88.1317C18.4617 86.5406 17.8616 85.0043 17.0855 83.5555C16.9744 82.9885 17.0985 82.2884 16.6454 81.8955C15.3852 80.6651 13.9884 79.5829 12.4824 78.6697C10.8424 77.8029 8.58641 79.4235 8.7463 81.2727ZM28.0791 42.6479C27.1094 42.5312 26.1959 42.507 25.6308 43.5495C25.3094 44.0821 25.1071 44.6779 25.0378 45.296C24.9685 45.9142 25.0338 46.54 25.2292 47.1305C25.4247 47.721 25.7456 48.2623 26.17 48.717C26.5944 49.1718 27.1122 49.5293 27.6878 49.765C29.6522 50.6326 31.5456 51.6527 33.3507 52.8159C33.9181 53.1733 34.2305 53.2359 34.5399 52.4982C35.0522 51.2767 35.6807 50.1032 36.2752 48.9169C36.9815 47.5071 36.9882 47.5105 35.5601 47.0113C33.9777 45.9513 32.3958 44.8909 30.8144 43.8303C30.0206 43.2056 29.078 42.7981 28.0791 42.6479ZM41.9527 40.1962C42.2402 39.8625 42.5467 39.5458 42.8708 39.2475C43.2363 38.9439 43.2211 38.7065 42.9124 38.3761C39.8178 34.8901 36.1457 31.9635 32.0573 29.7245C30.8954 29.1228 29.5689 28.7292 28.3925 29.8672C27.9444 30.1878 27.5988 30.6316 27.3977 31.1446C27.1967 31.6576 27.1487 32.218 27.2596 32.7577C27.4399 35.505 28.4356 38.136 30.1193 40.3143C32.1075 42.6336 34.5298 44.5421 37.25 45.9323C37.3193 45.9892 37.4007 46.0295 37.488 46.05C37.5753 46.0706 37.6661 46.0709 37.7535 46.0509C37.841 46.0309 37.9226 45.9912 37.9923 45.9347C38.062 45.8783 38.1178 45.8066 38.1555 45.7252C39.2653 43.7746 40.6695 42.0271 41.9527 40.1962ZM66.943 26.1345C67.0764 26.4392 67.8717 26.177 67.5652 26.8585C64.9936 27.6829 62.3072 28.1876 59.8404 29.2888C55.1512 31.3631 50.9473 34.3945 47.4982 38.1885C45.9672 39.5087 44.5911 40.9985 43.3964 42.6293C42.9834 43.1656 42.5592 43.6937 42.1589 44.2393C39.9238 47.3013 38.0382 50.6036 36.5371 54.0846C36.4417 54.3042 36.2924 54.5594 36.6132 54.6817C37.6301 55.0695 38.3213 55.9274 39.2394 56.4534C41.3447 58.0163 43.3681 59.6866 45.3015 61.4577C49.256 65.4205 52.6363 69.7348 53.9542 75.3393C54.2302 76.5134 54.2689 76.5043 53.0415 76.6804C52.657 76.2978 52.3763 75.8235 52.2261 75.3022C49.8235 69.8371 46.1599 65.0192 41.5357 61.2433C33.8741 55.0766 25.4715 50.2615 15.8558 47.7824C14.1738 47.3487 12.4919 47.0577 10.8934 48.0268C10.2743 48.4021 9.62812 48.8117 9.61561 49.6799L9.26288 49.9915L9.19535 50.0157L9.27089 49.9993L9.28929 50.2753C8.95588 53.0199 9.72577 55.7845 11.4298 57.9618C14.473 62.214 18.6645 65.0018 23.2822 67.2715C24.6836 67.7997 26.0381 68.4449 27.3314 69.2C23.4832 68.2037 19.7449 66.8229 16.173 65.0784C15.4417 64.694 14.6788 64.3729 13.8927 64.1187C12.834 63.7667 12.3442 64.0184 11.8465 65.0174C11.5761 65.557 11.426 66.1489 11.4066 66.7523C11.3873 67.3556 11.4992 67.9559 11.7346 68.5118C11.9861 69.7264 12.5447 70.8562 13.3573 71.7934C15.7983 74.8232 18.9605 77.1921 22.5541 78.6834C24.5191 79.5574 26.6121 79.9882 28.6304 80.6588C30.0675 81.1364 31.6704 81.1635 33.1115 81.769L28.9676 81.6829L28.7718 81.6802L28.4319 81.6637C28.1983 81.5788 27.9434 81.5726 27.7059 81.6462C27.6537 81.6252 27.5965 81.6199 27.5413 81.6311C27.6523 81.3127 28.0176 81.5246 28.2878 81.2775C27.097 81.43 25.8892 81.3861 24.7125 81.1478C23.4994 80.905 22.2644 80.6521 21.0551 80.3438C20.9207 80.2855 20.7747 80.2586 20.6283 80.2653C20.4819 80.2719 20.339 80.312 20.2104 80.3823C20.0818 80.4527 19.9711 80.5515 19.8865 80.6712C19.802 80.7909 19.7459 80.9283 19.7226 81.073C19.4617 81.2644 19.512 81.5514 19.4926 81.8172C19.5508 82.5649 19.7708 83.291 20.1374 83.9453C20.5039 84.5995 21.0083 85.1663 21.6155 85.6064C23.7999 87.2841 26.2905 88.5197 28.9479 89.2439C32.9401 90.4253 37.0911 90.9815 41.2535 90.8926C45.7665 90.935 49.8987 89.9092 53.4227 86.9888C54.1105 86.4184 54.9761 85.8934 54.9978 84.8073C55.0679 84.6866 55.0878 84.4881 55.2738 84.5129C55.5229 84.5459 55.4645 84.7588 55.4545 84.9269C55.2933 86.1195 54.8982 87.2685 54.2917 88.308C53.1997 89.6117 51.8868 90.7131 50.413 91.5617C47.9286 92.8853 45.1457 93.548 42.3314 93.4863C39.0539 93.4352 35.7856 93.1237 32.5575 92.5547C28.8321 91.8801 25.137 91.0449 22.0303 88.6638C22.0093 88.6477 21.9431 88.6903 21.8739 88.7137C21.8865 88.8293 21.9082 88.9436 21.9388 89.0558C22.1363 89.6113 22.3422 90.1637 22.5446 90.7175C24.5762 96.2457 27.7123 101.302 31.7617 105.579C33.8313 107.662 36.067 109.572 38.4467 111.292C42.5351 114.364 47.0266 116.86 51.7949 118.71C55.6908 120.286 59.7828 121.325 63.9585 121.799C69.1122 122.462 74.3322 122.42 79.4747 121.675C82.4459 121.226 85.3824 120.571 88.2628 119.715C97.1268 117.091 105.1 112.084 111.314 105.24C112.168 104.448 112.91 103.544 113.52 102.552C113.035 102.668 112.7 102.745 112.365 102.828C110.969 103.203 109.53 103.401 108.084 103.417C105.186 103.414 102.312 102.905 99.5899 101.911C96.8104 100.964 94.3371 99.2865 92.4298 97.0539C91.4687 95.864 90.6656 94.5548 90.0404 93.1589L90.0241 93.1279C90.0428 93.0617 90.0416 92.9915 90.0206 92.926C89.9996 92.8606 89.9598 92.8027 89.906 92.7599C89.4477 90.937 89.3588 89.0409 89.6446 87.1832C86.8498 89.1443 83.8026 88.7675 80.8165 88.4484C77.5695 88.0357 74.5198 86.6624 72.0586 84.5047C68.0189 81.2083 65.2173 76.6385 64.1122 71.543C63.4049 68.6135 63.2069 65.5842 63.5267 62.5875C63.9355 58.9139 65.1479 55.3753 67.0779 52.2228C69.071 48.7691 72.0888 46.0207 75.7132 44.3582C77.3926 43.6557 79.1785 43.2413 80.9957 43.1324C83.883 42.7157 86.82 43.4246 89.1994 45.1123L89.3133 45.1968C89.3604 45.2361 89.4076 45.2754 89.4549 45.3146C89.5047 45.437 89.5298 45.568 89.5288 45.7002C89.5279 45.8323 89.5008 45.9629 89.4492 46.0846C89.187 45.9621 88.8992 45.927 88.6255 45.8243C85.0321 44.3527 81.0089 44.3271 77.397 45.7527C72.1622 47.8629 68.9292 51.8963 66.9876 57.0617C65.1613 61.9204 65.412 66.9522 66.3501 71.8661C67.1558 75.7749 69.2263 79.3096 72.2417 81.9241C74.9269 84.487 78.3217 86.1818 81.9839 86.7879C84.3338 87.2375 86.7492 87.2198 89.0923 86.7358C89.3484 86.695 89.5861 86.5777 89.7743 86.3993C89.9625 86.2208 90.0923 85.9897 90.1466 85.7361C90.8846 83.1394 92.3739 80.8188 94.4272 79.0661C95.4553 78.231 96.5314 77.4569 97.6501 76.7477C100.254 75.6346 102.994 74.8701 105.798 74.4739C108.261 74.5008 110.724 74.4523 113.184 74.6119C111.263 70.1142 111.018 68.8318 111.1 63.696C111.117 62.64 111.176 61.5878 111.245 60.533C111.308 58.5638 111.706 56.6197 112.421 54.7839C112.588 54.2617 112.857 53.7778 113.213 53.3601C113.568 52.9425 114.003 52.5993 114.491 52.3506C115.365 51.9618 116.354 51.9234 117.255 52.2432C118.156 52.563 118.9 53.2166 119.333 54.0691C119.994 55.3526 120.449 56.7324 120.68 58.1576C121.722 63.0318 121.495 68.0921 120.02 72.8532C119.856 73.4497 119.598 74.0164 119.257 74.5326C118.664 75.4235 118.733 75.4913 119.799 75.7838C121.239 76.0543 122.632 76.531 123.935 77.1993C124.318 77.4356 124.37 77.2414 124.435 76.9325C124.929 74.5771 125.21 72.182 125.275 69.7761C125.484 65.6252 124.966 61.4697 123.742 57.4976C122.851 54.5279 121.476 51.7254 119.674 49.2026C119.188 48.5318 118.57 47.9669 117.859 47.542C117.148 47.1172 116.357 46.8413 115.536 46.7312C114.715 46.6211 113.88 46.679 113.082 46.9014C112.284 47.1238 111.54 47.506 110.894 48.025C111.164 47.2822 111.645 46.6339 112.277 46.1589C112.909 45.6839 113.665 45.4026 114.454 45.349C114.774 45.3411 115.089 45.2616 115.374 45.1162C116.095 45.3177 116.836 45.4371 117.583 45.4721C116.423 44.0115 115.386 42.6186 114.259 41.3015C108.052 34.0427 100.624 28.604 91.2663 26.0928C88.523 25.2212 85.6518 24.8214 82.7747 24.9101C82.6443 24.9301 82.511 24.9223 82.3838 24.8872C82.2565 24.8521 82.1381 24.7905 82.0363 24.7065C80.0423 23.1406 77.9288 21.733 75.7152 20.4967C73.3258 19.0015 70.7571 17.8142 68.07 16.9628C64.817 15.8326 61.3752 15.3458 57.9363 15.5295C55.8897 15.5402 53.9008 16.209 52.2637 17.4372C51.8127 17.7478 51.443 18.1624 51.186 18.646C50.929 19.1296 50.7922 19.6679 50.7872 20.2156C50.651 20.5851 50.6125 20.9836 50.6754 21.3724C50.7382 21.7612 50.9003 22.1272 51.146 22.4351C51.4079 23.1888 51.9319 23.8234 52.6226 24.2233C55.069 25.9889 57.9136 26.3993 60.8174 26.5417C62.7015 26.5699 64.584 26.4162 66.4386 26.083L66.943 26.1345ZM119.467 57.6321C119.533 56.9097 119.367 56.1851 118.995 55.5626C118.622 54.9401 118.062 54.4519 117.394 54.1684C117.032 53.9748 116.621 53.8924 116.213 53.9314C115.804 53.9705 115.416 54.1292 115.097 54.3879C114.649 54.8099 114.311 55.335 114.112 55.9175C113.913 56.5001 113.859 57.1224 113.956 57.7304C114.052 58.3383 114.295 58.9136 114.665 59.406C115.034 59.8985 115.518 60.2933 116.075 60.5561C116.412 60.7066 116.785 60.7577 117.15 60.7034C117.516 60.6491 117.858 60.4916 118.137 60.2495C118.559 59.9588 118.902 59.5671 119.135 59.1099C119.367 58.6527 119.481 58.1447 119.467 57.6321ZM12.9006 78.5001C14.1772 78.736 15.0014 79.7313 16.0694 80.3047C16.3309 80.4451 16.5273 80.8346 16.8838 80.4703C17.1977 79.8605 17.386 79.1938 17.4376 78.5099C17.3662 78.4616 17.2854 78.4288 17.2005 78.4135C15.7832 78.0759 14.3031 78.1057 12.9006 78.5001Z" fill="#04020F"/>
<path d="M84.6281 34.8321C84.6465 35.7337 84.1044 36.1637 83.1884 36.1093C79.8501 35.9107 76.5994 36.0895 73.7455 38.1885C73.195 38.5933 72.5311 39.3818 71.6914 38.4387C71.4943 38.2689 71.3566 38.0405 71.2984 37.7869C71.2403 37.5333 71.2647 37.2677 71.3682 37.029C71.6577 36.3776 72.1201 35.8179 72.7052 35.4108C75.8563 33.0306 79.416 32.5986 83.184 33.3556C83.5548 33.4056 83.8983 33.578 84.1599 33.8455C84.4216 34.113 84.5863 34.4602 84.6281 34.8321Z" fill="#29155D"/>
<path d="M93.7072 65.0765C93.8065 68.0643 93.2308 71.036 92.0229 73.7705C91.6113 74.7458 90.999 75.6235 90.2259 76.3465C89.8965 76.6909 89.4976 76.9612 89.0557 77.1394C88.6138 77.3177 88.1389 77.3997 87.6628 77.3801C87.1867 77.3605 86.7203 77.2397 86.2945 77.0258C85.8687 76.8118 85.4934 76.5096 85.1935 76.1393C83.804 74.5199 82.8952 72.5441 82.5701 70.4352C81.7996 66.0421 81.8712 61.5426 82.7811 57.1763C82.9945 56.0123 83.4725 54.913 84.1782 53.9631C86.0438 51.4825 88.4126 51.2046 90.7182 53.3391C92.1226 54.6393 92.5357 56.4565 93.04 58.2046C93.1999 58.7689 93.3154 59.3448 93.3854 59.9271C93.6088 61.6343 93.7163 63.3548 93.7072 65.0765ZM88.4144 60.7279C88.8297 60.7553 89.2445 60.6668 89.6125 60.4722C91.4913 59.5995 91.9699 56.6789 90.5122 54.926C90.2185 54.5171 89.8111 54.2035 89.3406 54.0244C88.8702 53.8452 88.3574 53.8084 87.8661 53.9184C87.2671 53.9714 86.6994 54.2096 86.2419 54.6C85.7844 54.9904 85.4599 55.5136 85.3133 56.0969C85.2178 56.7401 85.2654 57.3964 85.4529 58.0191C85.6404 58.6417 85.963 59.2153 86.3978 59.6988C86.6291 60.017 86.9323 60.2762 87.2827 60.455C87.6332 60.6339 88.0209 60.7274 88.4144 60.7279Z" fill="#04020F"/>
<path d="M19.4929 81.8173C19.5118 81.5515 19.4616 81.2645 19.7223 81.0732C20.9291 81.0108 22.1391 81.084 23.3296 81.2915C24.7091 81.6114 26.1283 81.7259 27.5412 81.6312C27.5964 81.62 27.6536 81.6253 27.7059 81.6463C27.752 81.6958 27.8075 81.7355 27.8692 81.7632C27.9309 81.791 27.9975 81.8061 28.0651 81.8077C28.1327 81.8094 28.2 81.7975 28.263 81.7728C28.3259 81.7481 28.3833 81.711 28.4318 81.6638L28.7716 81.6802C28.7807 81.6983 28.7945 81.7135 28.8116 81.7242C28.8288 81.7349 28.8485 81.7408 28.8687 81.741C28.8889 81.7413 28.9088 81.7361 28.9262 81.7258C28.9436 81.7156 28.9579 81.7008 28.9675 81.683L33.1121 81.7692C34.285 81.9072 35.4737 81.809 36.6081 81.4805C36.7988 81.4456 36.9706 81.3429 37.0916 81.1914C37.2126 81.0399 37.2749 80.8497 37.2668 80.656C37.241 80.261 36.8276 80.2466 36.5065 80.2091C35.8067 80.1274 35.0995 80.0895 34.4067 79.9686C31.0786 79.3732 27.8211 78.4346 24.6864 77.1679C20.7542 75.5978 17.0349 73.6789 14.0722 70.5636C13.3859 69.8419 12.8065 69.0201 12.1471 68.2714C11.7223 67.789 11.7423 68.207 11.7346 68.5119C11.4992 67.956 11.3873 67.3557 11.4067 66.7524C11.426 66.149 11.5761 65.5571 11.8466 65.0174C12.3443 64.0185 12.8341 63.7668 13.8927 64.1188C14.6785 64.3731 15.4411 64.6944 16.1721 65.0789C19.7441 66.8233 23.4825 68.2042 27.3308 69.2005L27.3999 69.2479L27.6178 69.3394C28.8169 69.8252 30.0832 70.1248 31.3728 70.2277C32.0996 70.3557 33.1932 70.4399 33.3636 69.8437C33.5413 69.2217 32.6171 68.6956 31.8874 68.4528C29.3598 67.6574 26.888 66.6946 24.4884 65.5706C21.3962 64.0677 18.4831 62.2215 15.8039 60.0668C14.0069 58.6821 12.4568 57.0037 11.2191 55.1024C10.1785 53.6823 9.5142 52.0219 9.28821 50.2758L9.26981 49.9998L9.26172 49.9916C9.37929 49.8878 9.49687 49.784 9.61445 49.6803C10.2509 49.2762 10.9765 49.0338 11.728 48.9742C12.4796 48.9146 13.2343 49.0396 13.9265 49.3384C16.2643 50.1087 18.5944 50.9116 20.8522 51.9004C22.7675 52.7395 24.6718 53.5882 26.5203 54.5847C30.015 56.4686 33.4804 58.3879 36.7973 60.5758C40.6 63.0776 44.0355 66.097 47.0047 69.547C48.9028 71.7498 50.3792 74.2365 52.0508 76.5913C52.3777 77.0519 52.6415 77.3967 53.0407 76.6806C54.268 76.5045 54.2294 76.5136 53.9533 75.3395C52.6356 69.7349 49.2553 65.4206 45.3012 61.4578C43.3679 59.6867 41.3447 58.0165 39.2395 56.4537C39.7366 54.5268 40.4582 52.6648 41.3895 50.9061C42.3916 48.7519 43.5055 46.6514 44.7266 44.6133C45.1621 43.9456 44.6346 43.3928 44.3939 42.8176C44.1591 42.2564 43.728 42.6993 43.3965 42.6298C44.591 40.999 45.9669 39.5093 47.4978 38.1892C48.335 38.3856 49.117 38.6748 49.9073 37.8926C51.8407 36.1517 53.9651 34.6354 56.24 33.3729C57.7352 32.3856 59.3041 31.5149 60.933 30.7683C63.6051 29.7358 66.3501 28.903 69.1455 28.2769C71.825 27.59 74.5905 27.6537 77.3172 27.3831C78.2614 27.3543 79.2064 27.3969 80.1442 27.5105C85.1926 27.7423 90.1776 28.7293 94.9334 30.4387C97.5064 31.381 99.9829 32.5683 102.329 33.9842C105.393 35.7666 108.245 37.8932 110.827 40.3225C112.409 41.858 114.252 43.1445 115.373 45.1157C115.088 45.2611 114.773 45.3407 114.453 45.3486C113.664 45.4023 112.908 45.6838 112.276 46.1589C111.644 46.634 111.163 47.2823 110.892 48.0251C110.423 48.5921 109.82 49.0222 109.374 49.6221C107.95 51.5784 106.957 53.8152 106.463 56.1842C105.582 59.7328 105.25 63.3955 105.478 67.0447C105.568 69.1601 105.785 71.2682 106.13 73.3573C106.201 73.699 106.621 74.3233 105.798 74.4741C102.994 74.8704 100.255 75.6347 97.6505 76.7473C98.012 75.6002 98.46 74.473 98.7197 73.3042C99.9768 68.0352 99.8313 62.5287 98.2977 57.3334C97.0345 52.8576 94.147 49.0139 90.1999 46.5543C90.5106 46.4985 90.6407 46.3452 90.3814 46.0942C90.0921 45.8142 89.8737 45.4431 89.4549 45.3146C89.4078 45.2754 89.3606 45.236 89.3135 45.1972C89.3029 45.1748 89.287 45.1553 89.2671 45.1405C89.2472 45.1257 89.224 45.116 89.1995 45.1122C86.8201 43.4245 83.8831 42.7157 80.9959 43.1323C79.1786 43.2412 77.3928 43.6556 75.7133 44.3581C72.0887 46.0205 69.0708 48.7689 67.0776 52.2226C65.1475 55.3752 63.9351 58.9139 63.5264 62.5876C63.2066 65.5844 63.4047 68.6139 64.112 71.5435C65.2172 76.639 68.0187 81.2087 72.0584 84.5052C74.5196 86.6628 77.5693 88.0361 80.8162 88.4488C83.8022 88.768 86.8495 89.1447 89.6442 87.1837C89.3585 89.0413 89.4474 90.9373 89.9054 92.7601C89.8882 92.7919 89.8777 92.8268 89.8743 92.8628C89.871 92.8987 89.875 92.935 89.886 92.9694C89.8971 93.0038 89.915 93.0356 89.9387 93.0628C89.9623 93.0901 89.9913 93.1123 90.0237 93.1281L90.0398 93.159C89.9711 94.4831 90.1323 95.8091 90.5163 97.0782C91.2437 100.323 93.4375 102.595 95.9835 104.533C97.7756 105.853 99.9016 106.646 102.121 106.82C102.507 106.859 103.112 106.828 103.212 107.227C103.318 107.645 102.728 107.801 102.419 108.039C102.134 108.25 101.832 108.435 101.515 108.592C98.7079 109.953 95.7554 110.99 92.7141 111.683C88.582 112.745 84.346 113.353 80.0818 113.494C75.3068 113.738 70.5196 113.566 65.7742 112.982C62.3961 112.507 59.0656 111.74 55.8198 110.689C50.685 109.093 45.7812 106.831 41.2332 103.962C39.586 103.043 38.0202 101.986 36.5528 100.801C36.3184 100.587 35.8928 100.375 35.9732 100.077C36.0765 99.6957 36.5375 99.8992 36.8354 99.894C38.4592 99.9857 40.0874 99.9582 41.7072 99.8118C44.2848 99.4371 46.73 98.4316 48.8257 96.8848C51.7013 94.6884 53.8423 92.04 54.2905 88.3086C54.8969 87.2691 55.2921 86.1201 55.4533 84.9275C55.4632 84.7595 55.5216 84.5467 55.2726 84.5135C55.0869 84.4889 55.067 84.6873 54.9972 84.8079C54.2144 84.8596 53.8308 85.5549 53.2308 85.9027C50.3464 87.5887 47.0916 88.5397 43.7532 88.6719C39.4867 89.0027 35.1948 88.7226 31.0075 87.8403C28.165 87.187 25.4228 86.1558 22.8542 84.7742C21.5908 83.964 20.4576 82.9671 19.4929 81.8173ZM84.6289 34.8321C84.5872 34.4603 84.4224 34.1131 84.1609 33.8457C83.8993 33.5782 83.5559 33.4058 83.1851 33.3557C79.4169 32.5987 75.8572 33.0307 72.7063 35.4109C72.1212 35.818 71.6588 36.3775 71.3693 37.0288C71.2658 37.2676 71.2413 37.5331 71.2995 37.7867C71.3576 38.0404 71.4953 38.2687 71.6925 38.4386C72.5321 39.3817 73.196 38.5932 73.7465 38.1883C76.6005 36.0895 79.8511 35.9108 83.1894 36.1091C84.1053 36.1638 84.6475 35.7341 84.6289 34.8321Z" fill="#FDBDB3"/>
<path d="M54.2913 88.3079C53.843 92.0392 51.7019 94.6876 48.8265 96.884C46.7308 98.4309 44.2856 99.4363 41.708 99.811C40.0882 99.9574 38.46 99.9849 36.8362 99.8932C36.5383 99.8984 36.0773 99.6949 35.974 100.076C35.8932 100.374 36.3188 100.586 36.5536 100.801C38.021 101.985 39.5868 103.043 41.234 103.961C45.782 106.83 50.6858 109.092 55.8206 110.689C59.0663 111.739 62.3969 112.506 65.775 112.982C70.5204 113.566 75.3076 113.737 80.0826 113.493C84.3468 113.352 88.5828 112.745 92.7149 111.682C95.7562 110.989 98.7087 109.952 101.516 108.592C101.833 108.434 102.135 108.249 102.42 108.039C102.729 107.801 103.319 107.644 103.213 107.226C103.112 106.827 102.508 106.859 102.122 106.819C99.9025 106.645 97.7764 105.852 95.9843 104.532C93.4383 102.594 91.2445 100.322 90.5171 97.0774C90.1331 95.8083 89.9719 94.4823 90.0406 93.1582C90.666 94.5541 91.4692 95.8634 92.4303 97.0534C94.3376 99.286 96.8109 100.964 99.5904 101.911C102.312 102.904 105.187 103.414 108.084 103.416C109.53 103.401 110.969 103.203 112.366 102.827C112.7 102.744 113.036 102.667 113.52 102.551C112.91 103.543 112.168 104.447 111.315 105.239C105.101 112.084 97.1273 117.091 88.2633 119.715C85.3828 120.571 82.4464 121.226 79.4752 121.675C74.3327 122.42 69.1127 122.461 63.959 121.798C59.7833 121.325 55.6913 120.286 51.7954 118.71C47.0271 116.861 42.5356 114.364 38.4471 111.292C36.0675 109.572 33.8317 107.662 31.7621 105.579C27.7123 101.302 24.5757 96.2458 22.5437 90.7173C22.3413 90.1636 22.1354 89.6111 21.938 89.0556C21.9074 88.9435 21.8856 88.8291 21.873 88.7136C21.9427 88.6902 22.0088 88.6476 22.0294 88.6637C25.1362 91.0448 28.8313 91.8799 32.5566 92.5546C35.7848 93.1235 39.053 93.4351 42.3305 93.4862C45.1448 93.5479 47.9278 92.8851 50.4122 91.5615C51.8861 90.713 53.1992 89.6116 54.2913 88.3079Z" fill="#F99171"/>
<path d="M90.1998 46.5543C94.1468 49.0139 97.0343 52.8576 98.2975 57.3334C99.8312 62.5287 99.9767 68.0352 98.7196 73.3042C98.4598 74.4726 98.0119 75.6002 97.6503 76.7473C96.5317 77.4566 95.4555 78.2307 94.4272 79.0657C92.3739 80.8183 90.8846 83.1389 90.1466 85.7357C90.0923 85.9892 89.9625 86.2204 89.7743 86.3988C89.5861 86.5772 89.3484 86.6945 89.0923 86.7353C86.7493 87.2194 84.3338 87.2371 81.9839 86.7874C78.3217 86.1814 74.9269 84.4865 72.2417 81.9237C69.2263 79.3092 67.1558 75.7745 66.3501 71.8657C65.4117 66.9518 65.1613 61.9199 66.9876 57.0612C68.9288 51.8959 72.1618 47.8624 77.397 45.7523C81.0089 44.3266 85.0321 44.3523 88.6255 45.8239C88.8992 45.9265 89.1867 45.9619 89.4497 46.0844C89.7 46.2414 89.95 46.398 90.1998 46.5543ZM93.7073 65.0766C93.7164 63.3547 93.6088 61.6342 93.3853 59.9268C93.3153 59.3445 93.1997 58.7686 93.0398 58.2043C92.5356 56.4563 92.1225 54.639 90.7181 53.3388C88.4125 51.2044 86.0437 51.4822 84.1781 53.9628C83.4723 54.9127 82.9943 56.0121 82.781 57.176C81.8711 61.5425 81.7996 66.0421 82.5701 70.4352C82.8953 72.5441 83.8039 74.5199 85.1932 76.1393C85.4931 76.5096 85.8685 76.8117 86.2943 77.0257C86.72 77.2396 87.1865 77.3604 87.6626 77.38C88.1387 77.3996 88.6136 77.3176 89.0555 77.1393C89.4974 76.9611 89.8963 76.6908 90.2256 76.3464C90.9988 75.6234 91.6111 74.7457 92.0227 73.7704C93.2306 71.036 93.8064 68.0643 93.7073 65.0766Z" fill="#F7F4FD"/>
<path d="M105.798 74.474C106.621 74.3231 106.2 73.6989 106.13 73.3572C105.785 71.2681 105.567 69.16 105.478 67.0446C105.25 63.3954 105.582 59.7329 106.464 56.1844C106.958 53.8154 107.95 51.5786 109.375 49.6223C109.82 49.0225 110.423 48.5919 110.893 48.0254C111.539 47.5063 112.283 47.124 113.081 46.9015C113.879 46.679 114.714 46.621 115.536 46.7311C116.357 46.8412 117.147 47.117 117.859 47.5418C118.57 47.9667 119.188 48.5316 119.674 49.2024C121.476 51.7253 122.851 54.5278 123.742 57.4975C124.966 61.4696 125.484 65.6251 125.275 69.776C125.21 72.1818 124.929 74.577 124.435 76.9324C124.37 77.2414 124.318 77.4356 123.935 77.1992C122.632 76.5309 121.238 76.0542 119.799 75.7836C118.733 75.4913 118.664 75.4235 119.257 74.5324C119.598 74.0163 119.855 73.4495 120.02 72.8531C121.495 68.092 121.722 63.0317 120.68 58.1575C120.449 56.7323 119.994 55.3525 119.332 54.069C118.9 53.2165 118.156 52.5629 117.255 52.2431C116.354 51.9233 115.365 51.9617 114.491 52.3505C114.002 52.5992 113.568 52.9423 113.213 53.36C112.857 53.7777 112.588 54.2616 112.421 54.7838C111.706 56.6196 111.308 58.5637 111.245 60.5329C111.176 61.5877 111.117 62.6397 111.1 63.6958C111.017 68.8317 111.263 70.1141 113.184 74.6114C110.724 74.4525 108.26 74.501 105.798 74.474Z" fill="#F7F4FD"/>
<path d="M115.373 45.1158C114.253 43.1445 112.409 41.858 110.827 40.3226C108.245 37.8932 105.394 35.7667 102.329 33.9842C99.9831 32.5684 97.5066 31.3811 94.9336 30.4387C90.1778 28.7294 85.1928 27.7423 80.1444 27.5106C79.2066 27.3969 78.2616 27.3543 77.3174 27.3831C74.5908 27.6537 71.825 27.59 69.1457 28.2769C66.3503 28.903 63.6053 29.7358 60.9332 30.7684C59.3043 31.5149 57.7354 32.3856 56.2402 33.3729C53.9653 34.6352 51.8409 36.1513 49.9075 37.8921C49.1169 38.6741 48.3353 38.385 47.498 38.1887C50.9471 34.3946 55.1511 31.3631 59.8403 29.2888C62.3071 28.1877 64.9935 27.683 67.5654 26.8585L68.3512 26.8217C68.4035 26.8446 68.4623 26.8484 68.5171 26.8322C68.5719 26.816 68.6192 26.781 68.6506 26.7333L68.7223 26.7482C69.4884 26.7582 70.2535 26.6899 71.0057 26.5443C73.5911 26.337 76.1608 25.9654 78.699 25.4316C79.3484 25.3107 79.3749 24.9268 78.9934 24.4869C78.7997 24.2638 78.5641 24.0807 78.3001 23.948C75.901 22.7691 73.5735 21.4444 71.0903 20.4366C67.9698 19.1133 64.6543 18.3079 61.2744 18.0519C59.1356 17.826 56.9754 17.9106 54.8608 18.3033C53.3983 18.6892 52.018 19.3373 50.7869 20.2161C50.7919 19.6684 50.9287 19.1301 51.1857 18.6465C51.4427 18.1629 51.8123 17.7483 52.2634 17.4377C53.9005 16.2093 55.8895 15.5403 57.9362 15.5296C61.3747 15.3457 64.8161 15.8323 68.0688 16.9622C70.7558 17.8136 73.3246 19.0009 75.714 20.4961C77.9276 21.7324 80.0411 23.1399 82.0351 24.7058C82.1369 24.7899 82.2553 24.8515 82.3825 24.8866C82.5098 24.9217 82.643 24.9295 82.7735 24.9095C85.6506 24.8208 88.5218 25.2206 91.2651 26.0922C100.623 28.6038 108.05 34.0423 114.258 41.3009C115.384 42.618 116.422 44.0109 117.582 45.4715C116.835 45.4365 116.094 45.3172 115.373 45.1158Z" fill="#F7F4FD"/>
<path d="M50.7856 20.2157C52.0167 19.337 53.397 18.6889 54.8595 18.303C56.9741 17.9103 59.1343 17.8257 61.2731 18.0516C64.6531 18.3075 67.9688 19.113 71.0895 20.4363C73.5727 21.444 75.9002 22.7687 78.2993 23.9476C78.5633 24.0804 78.7988 24.2635 78.9926 24.4866C79.3739 24.9265 79.3474 25.3104 78.6982 25.4313C76.1599 25.9651 73.5902 26.3367 71.0047 26.544C70.2526 26.6896 69.4875 26.7578 68.7215 26.7475C68.4102 25.7263 67.5972 26.1592 66.9419 26.1346L66.4376 26.083C66.3667 25.8371 66.1765 25.8011 65.9552 25.7921C63.2265 25.7898 60.5036 25.541 57.8196 25.0489C56.3709 24.8179 54.9976 24.2464 53.8127 23.3815C52.8774 22.8097 52.0488 22.0795 51.364 21.2236C50.8856 21.6447 51.4805 22.0894 51.1447 22.4352C50.899 22.1274 50.7369 21.7614 50.6739 21.3726C50.611 20.9838 50.6495 20.5854 50.7856 20.2157Z" fill="#FDBDB3"/>
<path d="M41.9529 40.1963C40.6699 42.0271 39.2657 43.7746 38.1559 45.7249C38.1183 45.8063 38.0624 45.878 37.9928 45.9344C37.9231 45.9909 37.8414 46.0306 37.754 46.0506C37.6666 46.0706 37.5758 46.0703 37.4885 46.0498C37.4012 46.0292 37.3198 45.9889 37.2505 45.932C34.5302 44.5419 32.1078 42.6336 30.1195 40.3144C28.4358 38.1362 27.44 35.5053 27.2595 32.7582C27.1486 32.2184 27.1966 31.658 27.3977 31.145C27.5988 30.6319 27.9444 30.1882 28.3926 29.8676C29.5043 30.3672 30.7581 30.4944 31.7739 31.2715C32.2926 31.6683 32.5898 32.2507 33.1642 32.5963C35.6123 34.0672 37.5491 36.181 39.7927 37.9066C40.657 38.5707 41.066 39.5951 41.9529 40.1963Z" fill="#F99171"/>
<path d="M53.0398 76.6805C52.6406 77.3966 52.3768 77.0518 52.0499 76.5912C50.3783 74.236 48.9019 71.7497 47.0038 69.5469C44.0346 66.0969 40.5991 63.0775 36.7964 60.5757C33.4795 58.3879 30.0141 56.4685 26.5194 54.5847C24.6709 53.5881 22.7666 52.7394 20.8514 51.9003C18.5935 50.9111 16.2634 50.1086 13.9256 49.3383C13.2334 49.0395 12.4786 48.9144 11.727 48.974C10.9754 49.0335 10.2498 49.2759 9.61328 49.6801C9.62579 48.8117 10.272 48.402 10.8911 48.0267C12.4896 47.0576 14.1714 47.3486 15.8535 47.7823C25.4692 50.2614 33.8717 55.0765 41.5334 61.2433C46.1578 65.019 49.8215 69.8369 52.2244 75.3021C52.3745 75.8234 52.6552 76.2978 53.0398 76.6805Z" fill="#F7F4FD"/>
<path d="M131.207 86.0872C129.827 85.8289 128.798 84.8758 127.606 84.2507C124.845 82.9143 121.963 81.8439 118.999 81.054C114.697 79.7472 110.201 79.1919 105.71 79.4125C104.208 79.4851 102.712 79.6719 101.215 79.8265C101.046 79.8758 100.867 79.8867 100.693 79.8586C100.519 79.8305 100.353 79.764 100.207 79.6639C99.9765 79.4603 99.685 79.3383 99.3779 79.3169C99.0707 79.2954 98.7651 79.3757 98.5081 79.5453C97.6477 79.9321 96.8661 80.4575 96.0039 80.8304C97.4381 79.6135 99.0911 78.6811 100.874 78.0831C104.167 76.9317 107.671 76.5132 111.142 76.8567C116.625 77.1835 121.893 78.34 126.639 81.2778C127.972 82.1535 129.197 83.1822 130.29 84.343C130.554 84.5559 130.771 84.8205 130.929 85.1204C131.086 85.4204 131.181 85.7494 131.207 86.0872Z" fill="#F7F4FD"/>
<path d="M35.559 47.0113C36.9871 47.5105 36.9804 47.5071 36.2741 48.9169C35.6798 50.1032 35.0511 51.2767 34.5388 52.4982C34.2294 53.2359 33.917 53.1733 33.3496 52.8159C31.5445 51.6527 29.651 50.6326 27.6866 49.765C27.111 49.5293 26.5932 49.1718 26.1688 48.7171C25.7444 48.2624 25.4235 47.7211 25.228 47.1306C25.0326 46.5401 24.9673 45.9143 25.0366 45.2961C25.1059 44.678 25.3082 44.0822 25.6296 43.5496C26.1947 42.507 27.1082 42.5312 28.0779 42.648C28.1942 42.7747 28.3207 42.8916 28.4561 42.9976C29.6252 43.775 30.9508 44.2948 32.0609 45.1693C32.9556 45.8741 33.849 46.5806 34.7313 47.3005C35.1892 47.6734 35.4596 47.612 35.559 47.0113Z" fill="#F99171"/>
<path d="M19.4922 81.8173C20.457 82.9669 21.5905 83.9636 22.854 84.7736C25.4226 86.1552 28.1648 87.1864 31.0073 87.8397C35.1946 88.722 39.4865 89.0021 43.753 88.6713C47.0914 88.5391 50.3461 87.5882 53.2306 85.9022C53.8306 85.5544 54.2142 84.8591 54.997 84.8074C54.975 85.8929 54.1094 86.4189 53.4216 86.9889C49.898 89.9092 45.7655 90.9351 41.2524 90.8927C37.0904 90.9814 32.9398 90.4252 28.9479 89.244C26.2905 88.5198 23.7999 87.2842 21.6155 85.6065C21.0082 85.1664 20.5037 84.5997 20.1371 83.9454C19.7705 83.2911 19.5504 82.565 19.4922 81.8173Z" fill="#F99171"/>
<path d="M6.18164 86.3658L6.23896 85.8598C6.2963 85.8261 6.34077 85.7742 6.36531 85.7124C6.38986 85.6506 6.39308 85.5823 6.37447 85.5185C7.06199 84.2461 7.30514 84.1443 8.4395 84.9733C10.9452 86.8041 13.4941 88.5674 16.1532 90.1697C16.1496 90.9663 16.3372 91.7522 16.7003 92.4613C17.3099 93.9214 17.7132 95.4592 17.8986 97.0305C16.0145 96.396 14.2494 95.4515 12.6762 94.236C12.3269 93.9634 11.938 93.7456 11.523 93.5903C10.4515 93.1126 9.54056 92.3358 8.8996 91.3532C8.0601 90.3617 7.32051 89.286 6.5374 88.2475L6.52287 88.1994C6.55617 87.9544 6.6823 87.6883 6.3696 87.5213L6.3604 87.4882C6.39664 87.2359 6.47264 86.9758 6.22074 86.7798L6.21927 86.7744L6.18164 86.3658Z" fill="#FDBDB3"/>
<path d="M6.53711 88.2476C7.32021 89.2863 8.0598 90.3618 8.8993 91.3531C9.54026 92.3357 10.4512 93.1125 11.5227 93.5902C11.9377 93.7455 12.3266 93.9633 12.6759 94.2359C14.2492 95.4514 16.0142 96.3959 17.8983 97.0304C17.7129 95.4591 17.3096 93.9212 16.7 92.4612C16.3369 91.7521 16.1493 90.9662 16.1529 90.1696C17.4277 90.7 18.4935 91.6477 19.8628 92.0004C20.0303 92.067 20.1785 92.1744 20.294 92.3128C20.4095 92.4513 20.4886 92.6163 20.5241 92.7931C21.4981 95.8881 23.3084 98.5332 25.0371 101.223C25.0716 101.298 25.0998 101.374 25.1214 101.453C24.2852 101.502 23.4473 101.391 22.6532 101.124C19.1427 100.022 15.8387 98.3471 12.8754 96.1662C10.143 94.2607 7.77782 92.0164 6.62203 88.7702C6.57764 88.599 6.54921 88.424 6.53711 88.2476Z" fill="#F99171"/>
<path d="M9.28702 50.2755C9.513 52.0216 10.1773 53.682 11.2179 55.1021C12.4556 57.0035 14.0057 58.682 15.8027 60.0668C18.4818 62.2215 21.3949 64.0678 24.487 65.5708C26.8867 66.6946 29.3586 67.6574 31.8864 68.4527C32.6161 68.6955 33.5403 69.2215 33.3626 69.8435C33.1922 70.4398 32.0989 70.3556 31.3718 70.2276C30.0823 70.1246 28.8162 69.8252 27.6173 69.3395L27.3989 69.2475L27.3298 69.2001C26.0364 68.4449 24.6818 67.7997 23.2803 67.2714C18.6626 65.0018 14.4711 62.214 11.4279 57.9617C9.72381 55.7846 8.95379 53.0201 9.28702 50.2755Z" fill="#F99171"/>
<path d="M11.7344 68.5119C11.7424 68.2068 11.722 67.789 12.1469 68.2714C12.8063 69.0201 13.3857 69.8419 14.072 70.5636C17.0344 73.6789 20.754 75.5978 24.6862 77.1679C27.8209 78.4346 31.0784 79.3732 34.4065 79.9686C35.0992 80.0899 35.8065 80.1275 36.5063 80.2092C36.8274 80.2466 37.2408 80.261 37.2666 80.656C37.2747 80.8498 37.2124 81.0399 37.0914 81.1914C36.9703 81.3429 36.7986 81.4456 36.6079 81.4805C35.4735 81.8091 34.2848 81.9072 33.1119 81.7692C31.67 81.1636 30.0671 81.1365 28.63 80.6589C26.6118 79.9883 24.5188 79.5577 22.5538 78.6835C18.9601 77.1922 15.798 74.8233 13.3569 71.7935C12.5444 70.8563 11.9858 69.7265 11.7344 68.5119Z" fill="#F99171"/>
<path d="M8.74633 81.2728C8.58644 79.4229 10.8426 77.8026 12.4831 78.6692C13.9891 79.5823 15.3858 80.6646 16.6461 81.895C17.0992 82.2879 16.9751 82.988 17.0861 83.5549C17.0828 84.5271 17.0835 85.4993 17.0751 86.4713C17.067 87.4097 17.0411 87.3927 16.2311 86.9949C15.3713 86.5727 14.771 85.7668 13.905 85.4102C12.8054 84.9207 11.8222 84.2035 11.0204 83.306C10.3328 82.5533 9.57095 81.8721 8.74633 81.2728Z" fill="#FDBDB3"/>
<path d="M43.3965 42.6294C43.7277 42.6989 44.1591 42.2563 44.3939 42.8172C44.6347 43.3924 45.1621 43.9452 44.7266 44.6129C43.5056 46.651 42.3917 48.7515 41.3895 50.9057C40.4582 52.6644 39.7366 54.5264 39.2396 56.4533C38.3213 55.9272 37.6301 55.0693 36.6133 54.6815C36.2925 54.5592 36.4418 54.3043 36.5372 54.0844C38.0383 50.6034 39.9239 47.3011 42.1589 44.2391C42.559 43.6938 42.9832 43.1657 43.3965 42.6294Z" fill="#F99171"/>
<path d="M41.9525 40.1962C41.0659 39.595 40.6569 38.5706 39.7927 37.9054C37.5491 36.1798 35.6123 34.066 33.1642 32.5951C32.5897 32.2499 32.2925 31.6674 31.7739 31.2703C30.7581 30.4932 29.5042 30.366 28.3926 29.8664C29.5688 28.7285 30.895 29.1221 32.0571 29.7238C36.1456 31.9627 39.8177 34.8894 42.9123 38.3754C43.221 38.7057 43.2361 38.9432 42.8707 39.2468C42.5466 39.5453 42.24 39.8623 41.9525 40.1962Z" fill="#FDBDB3"/>
<path d="M119.466 57.6322C119.48 58.1448 119.366 58.6528 119.134 59.1099C118.901 59.5671 118.559 59.9589 118.136 60.2496C117.857 60.4917 117.515 60.6491 117.15 60.7034C116.784 60.7577 116.411 60.7066 116.074 60.5561C115.517 60.2933 115.033 59.8985 114.664 59.4061C114.295 58.9136 114.051 58.3384 113.955 57.7304C113.858 57.1224 113.912 56.5001 114.111 55.9176C114.31 55.335 114.648 54.8099 115.096 54.3879C115.415 54.1293 115.803 53.9705 116.212 53.9314C116.62 53.8924 117.031 53.9749 117.393 54.1685C118.061 54.452 118.622 54.9401 118.994 55.5626C119.367 56.1851 119.532 56.9098 119.466 57.6322Z" fill="#F7F4FD"/>
<path d="M8.74472 81.2728C9.56935 81.8722 10.3312 82.5534 11.0188 83.306C11.8206 84.2037 12.8038 84.921 13.9033 85.4106C14.7694 85.7672 15.3697 86.5731 16.2295 86.9953C17.0391 87.3931 17.0654 87.4102 17.0735 86.4717C17.0819 85.4997 17.0812 84.5274 17.0845 83.5553C17.8606 85.0041 18.4608 86.5404 18.8724 88.1316C19.059 88.8645 19.3376 89.5741 19.6544 90.5359C18.211 89.7322 16.8836 89.1299 15.7088 88.3095C13.4602 86.7398 11.1021 85.2837 9.36177 83.0889C9.14271 82.8428 8.97523 82.5553 8.86924 82.2434C8.76325 81.9315 8.72091 81.6014 8.74472 81.2728Z" fill="#F99171"/>
<path d="M51.1445 22.4352C51.4803 22.0893 50.8849 21.6446 51.3638 21.2235C52.0486 22.0794 52.8773 22.8096 53.8125 23.3814C54.9974 24.2463 56.3707 24.8178 57.8194 25.0488C60.5034 25.5409 63.2263 25.7897 65.9551 25.792C66.1759 25.8012 66.3665 25.837 66.4374 26.083C64.5828 26.4162 62.7003 26.5698 60.8162 26.5416C57.9124 26.3993 55.0679 25.989 52.6214 24.2232C51.9307 23.8234 51.4066 23.1889 51.1445 22.4352Z" fill="#F99171"/>
<path d="M12.9004 78.5002C14.303 78.1056 15.783 78.0757 17.2004 78.4132C17.2853 78.4285 17.366 78.4614 17.4375 78.5096C17.3859 79.1936 17.1975 79.8602 16.8836 80.4701C16.5271 80.8347 16.3307 80.4451 16.0692 80.3045C15.0012 79.7313 14.177 78.7361 12.9004 78.5002Z" fill="#F99171"/>
<path d="M27.5416 81.6316C26.1286 81.7263 24.7095 81.6118 23.33 81.2919C22.1395 81.0845 20.9295 81.0112 19.7227 81.0736C19.746 80.9289 19.8021 80.7915 19.8866 80.6717C19.9712 80.552 20.0819 80.4532 20.2105 80.3829C20.3391 80.3125 20.482 80.2724 20.6284 80.2658C20.7748 80.2591 20.9208 80.286 21.0553 80.3443C22.2646 80.6526 23.4996 80.9055 24.7127 81.1483C25.8894 81.3866 27.0972 81.4305 28.288 81.278C28.0178 81.5246 27.6525 81.3127 27.5416 81.6316Z" fill="#F99171"/>
<path d="M35.5596 47.0114C35.4602 47.612 35.1894 47.6738 34.7316 47.3002C33.8492 46.5803 32.956 45.8742 32.0612 45.169C30.951 44.2943 29.6255 43.7747 28.4563 42.9973C28.3209 42.8913 28.1944 42.7744 28.0781 42.6477C29.0771 42.7979 30.0197 43.2054 30.8136 43.8301C32.3934 44.8941 33.9754 45.9545 35.5596 47.0114Z" fill="#FDBDB3"/>
<path d="M66.9414 26.1346C67.5967 26.1592 68.4097 25.7267 68.7211 26.7475L68.6488 26.7327L68.3497 26.8213L67.5639 26.8581C67.8701 26.1771 67.0748 26.4393 66.9414 26.1346Z" fill="#F99171"/>
<path d="M90.1993 46.5542C89.9494 46.3978 89.6994 46.2414 89.4492 46.085C89.553 45.8391 89.5548 45.5621 89.4544 45.3148C89.8731 45.4436 90.0915 45.8145 90.3808 46.0945C90.6401 46.3452 90.5098 46.4985 90.1993 46.5542Z" fill="#F99171"/>
<path d="M93.699 83.2499C93.7987 83.5046 93.7569 83.6748 93.4414 83.6784C93.5275 83.5337 93.6133 83.3918 93.699 83.2499Z" fill="#F7F4FD"/>
<path d="M92.8987 84.752C93.0283 84.9011 92.9149 85.0165 92.845 85.1384C92.8306 85.1633 92.8174 85.1891 92.8045 85.2148C92.757 85.3078 92.7318 85.3041 92.7285 85.1997C92.7853 85.0476 92.842 84.8998 92.8987 84.752Z" fill="#F7F4FD"/>
<path d="M28.431 81.6638C28.3825 81.711 28.3251 81.748 28.2622 81.7727C28.1992 81.7974 28.1319 81.8093 28.0643 81.8077C27.9967 81.806 27.9301 81.7909 27.8684 81.7632C27.8067 81.7355 27.7512 81.6957 27.7051 81.6462C27.9425 81.5726 28.1974 81.5788 28.431 81.6638Z" fill="#F99171"/>
<path d="M6.22077 86.7802C6.47267 86.9758 6.39668 87.236 6.36043 87.4885C6.15913 87.2826 6.20973 87.0274 6.22077 86.7802Z" fill="#F99171"/>
<path d="M6.3682 87.5214C6.681 87.6883 6.55477 87.9544 6.52147 88.1994C6.39087 87.999 6.33649 87.7584 6.3682 87.5214Z" fill="#F99171"/>
<path d="M94.2959 82.4841L94.3339 82.5143L94.293 82.4885L94.2959 82.4841Z" fill="#F7F4FD"/>
<path d="M92.5508 85.7816L92.5843 85.78C92.5744 85.7911 92.5645 85.8023 92.5549 85.8119L92.5508 85.7816Z" fill="#F7F4FD"/>
<path d="M95.709 81.0465L95.7292 81.121L95.7173 81.0557L95.709 81.0465Z" fill="#F7F4FD"/>
<path d="M93.9137 83.0512L93.9652 83.0585L93.9082 83.0457L93.9137 83.0512Z" fill="#F7F4FD"/>
<path d="M93.2539 84.0527L93.2999 84.0754C93.2859 84.0723 93.2718 84.0693 93.2579 84.0652L93.2539 84.0527Z" fill="#F7F4FD"/>
<path d="M93.0723 84.4155L93.1035 84.4569L93.0778 84.4127L93.0723 84.4155Z" fill="#F7F4FD"/>
<path d="M6.37495 85.5183C6.39355 85.5822 6.39033 85.6504 6.36579 85.7122C6.34124 85.7741 6.29678 85.8259 6.23943 85.8596C6.21989 85.7958 6.22267 85.7272 6.2473 85.6652C6.27193 85.6032 6.31695 85.5514 6.37495 85.5183Z" fill="#F99171"/>
<path d="M6.18179 86.3658L6.21942 86.7744C6.16276 86.7236 6.12739 86.6533 6.12041 86.5775C6.11343 86.5017 6.13536 86.4261 6.18179 86.3658Z" fill="#F99171"/>
<path d="M90.0236 93.1276C89.9911 93.1118 89.9622 93.0896 89.9385 93.0624C89.9148 93.0351 89.8969 93.0033 89.8859 92.9689C89.8748 92.9345 89.8709 92.8983 89.8742 92.8623C89.8775 92.8263 89.8881 92.7914 89.9053 92.7596C89.9591 92.8025 89.999 92.8603 90.0201 92.9258C90.0411 92.9912 90.0423 93.0615 90.0236 93.1276Z" fill="#F99171"/>
<path d="M28.9674 81.6829C28.9578 81.7007 28.9435 81.7156 28.9261 81.7258C28.9087 81.736 28.8888 81.7413 28.8686 81.741C28.8484 81.7407 28.8286 81.7349 28.8115 81.7242C28.7944 81.7135 28.7806 81.6982 28.7715 81.6802L28.9674 81.6829Z" fill="#F99171"/>
<path d="M96.0166 80.8588C95.9537 80.9108 95.8909 80.9627 95.8281 81.0152C95.854 80.9196 95.8965 80.8429 96.0166 80.8588Z" fill="#F7F4FD"/>
<path d="M9.26089 49.9915L9.26898 49.9996C9.24378 50.0048 9.21857 50.0102 9.19336 50.0157L9.26089 49.9915Z" fill="#F99171"/>
<path d="M89.1992 45.1121C89.2237 45.1158 89.2469 45.1255 89.2668 45.1403C89.2867 45.1551 89.3026 45.1746 89.3132 45.197C89.2751 45.1684 89.2372 45.1402 89.1992 45.1121Z" fill="#F99171"/>
<path d="M68.3516 26.8213L68.6506 26.7327C68.6193 26.7804 68.5721 26.8156 68.5173 26.8318C68.4626 26.848 68.4038 26.8443 68.3516 26.8213Z" fill="#FDBDB3"/>
<path d="M88.4143 60.7279C88.0209 60.7274 87.6331 60.6339 87.2827 60.455C86.9323 60.2762 86.629 60.017 86.3978 59.6988C85.963 59.2152 85.6404 58.6416 85.453 58.019C85.2656 57.3963 85.218 56.7399 85.3136 56.0968C85.4602 55.5136 85.7847 54.9905 86.2421 54.6001C86.6995 54.2097 87.2671 53.9715 87.8661 53.9184C88.3573 53.8084 88.8701 53.8452 89.3406 54.0244C89.8111 54.2035 90.2185 54.5171 90.5121 54.926C91.9699 56.6789 91.4913 59.5996 89.6124 60.4722C89.2445 60.6668 88.8297 60.7553 88.4143 60.7279Z" fill="#F7F4FD"/>
</svg>
