<svg width="138" height="138" viewBox="0 0 138 138" fill="none" xmlns="http://www.w3.org/2000/svg">
<path d="M93.9151 83.0512C94.0413 82.8634 94.1674 82.6758 94.2933 82.4884L94.3342 82.5142L94.2962 82.4841C94.6811 81.9267 95.1629 81.4429 95.7185 81.0556L95.7299 81.1206L95.7103 81.046C95.714 81.0344 95.7205 81.024 95.7294 81.0156C95.7382 81.0073 95.749 81.0013 95.7607 80.9982C95.7725 80.9952 95.7848 80.9951 95.7966 80.9981C95.8084 81.0011 95.8192 81.0071 95.8281 81.0154C95.8908 80.9626 95.9537 80.9107 96.0166 80.859L96.0035 80.8303C96.8658 80.4574 97.6473 79.932 98.5078 79.5451C98.7647 79.3756 99.0704 79.2953 99.3775 79.3168C99.6846 79.3382 99.9761 79.4602 100.207 79.6638C100.352 79.7639 100.518 79.8304 100.693 79.8585C100.867 79.8866 101.045 79.8756 101.215 79.8264C102.712 79.6723 104.208 79.4854 105.709 79.4124C110.201 79.1918 114.696 79.7471 118.999 81.0538C121.963 81.8438 124.844 82.9142 127.605 84.2505C128.797 84.8761 129.827 85.8287 131.207 86.0871C132.056 87.5091 131.493 88.2994 130.063 88.9056C127.002 90.2803 123.712 91.0755 120.361 91.251C115.648 91.5613 110.92 91.5986 106.203 91.3625C103.559 91.1974 100.971 90.533 98.5743 89.4044C97.318 88.7955 96.2553 87.8501 95.5044 86.6732C95.2698 86.3117 95.1812 85.5841 94.4409 85.9784C94.1154 86.095 93.8491 86.3352 93.6996 86.647C93.5501 86.9587 93.5296 87.3168 93.6425 87.6436C93.9367 88.4538 94.4547 89.1639 95.1363 89.6915C97.5838 91.762 100.546 93.1311 103.709 93.6534C107.578 94.204 111.495 94.3406 115.392 94.0611C117.693 93.9697 120 93.9854 122.297 93.7503C123.243 93.5383 124.201 93.3888 125.166 93.303C125.364 93.3086 125.619 93.1964 125.73 93.4042C125.832 93.5962 125.673 93.8057 125.544 93.9611C124.784 94.9311 123.881 95.7804 122.866 96.4797C118.771 99.227 113.937 100.665 109.006 100.604C106.016 100.58 103.035 100.563 100.183 99.4963C96.1779 97.9985 93.1804 95.472 92.1285 91.1761C91.7107 89.3869 91.8597 87.512 92.5548 85.8111C92.564 85.8019 92.5742 85.7905 92.5839 85.7796L92.5508 85.7812C92.6101 85.5858 92.6695 85.3905 92.7287 85.199C92.732 85.3034 92.7572 85.3071 92.8047 85.2141C92.8178 85.1884 92.8308 85.1625 92.8452 85.1376C92.9151 85.0161 93.0285 84.9007 92.8989 84.7512C92.9586 84.6381 93.0183 84.525 93.078 84.412L93.1033 84.456L93.0725 84.4152C93.1347 84.2979 93.197 84.1807 93.259 84.0645C93.2729 84.0686 93.2866 84.0716 93.301 84.0746L93.255 84.052C93.3171 83.9262 93.3793 83.8006 93.441 83.6777C93.7566 83.6741 93.7985 83.5039 93.6986 83.2491L93.9102 83.0445L93.9665 83.0578L93.9151 83.0512Z" fill="#FABC01"/>
<path d="M125.001 92.5377C120.523 92.6148 101.986 92.0572 98.8204 89.7396C95.6553 87.422 101.146 97.782 115.097 95.8873C129.049 93.9927 125.001 92.5377 125.001 92.5377Z" fill="#FF560F"/>
<path d="M125.274 94.4932C120.842 97.0563 112.989 100.43 105.731 99.7394C100.286 99.2214 95.3838 96.0455 91.3652 90.567C91.3652 90.567 94.2419 101.277 108.32 101.492C120.694 101.682 125.274 94.4932 125.274 94.4932Z" fill="#FF560F"/>
<path d="M44.9185 37.1107C47.9802 33.8743 51.4989 31.1034 55.3629 28.8859C55.6035 28.7489 56.0102 28.6616 55.9768 28.3282C55.9367 27.9276 55.5101 27.962 55.2007 27.8832C53.1418 27.4092 51.2731 26.3271 49.8371 24.7774C49.2012 24.1624 48.7098 23.4139 48.3982 22.5859C48.0867 21.7579 47.9629 20.8711 48.0356 19.9894C48.1084 19.1077 48.3759 18.2532 48.819 17.4875C49.262 16.7218 49.8695 16.064 50.5976 15.5615C53.0713 13.5995 55.9946 13.0019 59.0628 12.9297C60.6498 12.9056 62.2351 13.0408 63.795 13.3334C67.2145 13.9675 70.5227 15.0987 73.6145 16.691C76.5074 18.1561 79.444 19.5592 81.8862 21.7589C82.192 21.9919 82.5719 22.1062 82.9555 22.0809C86.2932 22.3031 89.5926 22.9214 92.7842 23.9227C95.8591 24.8434 98.8264 26.0907 101.636 27.6434C106.3 30.2695 110.538 33.5897 114.204 37.4901C118.083 41.5808 121.335 46.2231 123.855 51.266C126.017 55.4644 127.321 60.052 127.69 64.7603C127.908 67.109 127.948 69.4707 127.809 71.8254C127.762 73.9962 127.458 76.1539 126.904 78.2533C126.784 78.6176 126.956 78.7236 127.178 78.8833C128.058 79.5182 128.988 80.0978 129.799 80.812C131.464 82.1198 132.819 83.7806 133.765 85.6749C134.191 86.4618 134.32 87.3755 134.128 88.2493C133.936 89.1231 133.437 89.899 132.721 90.4354C131.61 91.3225 130.32 91.9573 128.939 92.2957C128.711 92.3622 128.405 92.3167 128.386 92.723C128.279 94.9551 126.909 96.4609 125.323 97.7853C123.458 99.3195 121.297 100.454 118.975 101.12C118 101.38 117.162 102.006 116.636 102.867C115.259 104.855 113.688 106.701 111.946 108.378C106.073 114.509 98.7958 119.118 90.743 121.806C84.2218 123.979 77.3923 125.083 70.5187 125.076C66.1599 125.037 61.8217 124.473 57.5977 123.396C49.981 121.51 42.8297 118.088 36.5819 113.341C33.6366 111.165 30.9834 108.619 28.6874 105.766C28.423 105.418 28.0844 105.134 27.6964 104.934C27.3084 104.734 26.8807 104.623 26.4443 104.609C24.2191 104.321 22.0538 103.68 20.0293 102.713C16.643 101.39 13.4591 99.5993 10.5708 97.3918C7.96671 95.3742 5.89454 92.7515 4.53418 89.7513C3.89206 88.5169 3.6773 87.1044 3.92348 85.7349C4.00217 85.147 4.24327 84.5928 4.61968 84.1345C4.99608 83.6762 5.49287 83.3319 6.0542 83.1405C6.44529 83.0144 6.94025 82.926 6.71743 82.249C6.33386 81.1766 6.38939 79.9961 6.87191 78.9644C7.35444 77.9327 8.22491 77.1334 9.29389 76.7403C10.2459 76.3469 11.2643 76.1391 12.2944 76.1282C12.8504 76.1282 13.4066 76.1282 14.0677 76.1282C13.8131 75.6086 13.4345 75.1596 12.9652 74.821C11.2077 73.2706 9.90371 71.2724 9.19213 69.0394C8.46046 66.4022 8.84373 64.0169 10.8828 62.0689C11.4103 61.565 11.3342 61.2784 10.8689 60.819C8.80377 58.846 7.40865 56.2756 6.87962 53.4689C6.44161 51.0931 6.61282 48.8021 8.35282 46.9062C8.95068 46.2538 9.68626 45.7426 10.5062 45.4098C11.3261 45.077 12.2099 44.9309 13.0933 44.9821C15.9999 45.1636 18.8403 45.9275 21.4459 47.2283C21.7687 47.3723 22.1513 47.5704 22.4322 47.3644C22.7155 47.1566 22.4831 46.7617 22.4394 46.4536C22.03 43.5635 23.4073 41.2935 26.3718 40.2062C27.1287 39.9285 27.0599 39.6587 26.7172 39.1574C25.4738 37.3305 24.7872 35.182 24.7406 32.9726C24.683 30.9134 24.9365 28.8202 27.0075 27.5496C27.9547 26.9574 29.0464 26.6369 30.1634 26.6231C31.2803 26.6093 32.3796 26.9027 33.3412 27.4712C35.116 28.4761 36.78 29.6652 38.3056 31.0189C40.6937 32.8405 42.9075 34.8798 44.9185 37.1107ZM93.0727 84.416L93.0782 84.4126L92.8991 84.752L92.729 85.1956L92.5509 85.7816L92.5552 85.8102C91.8599 87.5115 91.7109 89.3868 92.1287 91.1766C93.1806 95.4724 96.178 97.9989 100.183 99.4968C103.035 100.563 106.016 100.58 109.006 100.605C113.938 100.666 118.771 99.2277 122.867 96.4805C123.882 95.7811 124.785 94.9319 125.545 93.9618C125.673 93.8064 125.833 93.5969 125.73 93.4049C125.62 93.1974 125.364 93.3095 125.166 93.3037C124.201 93.3896 123.243 93.539 122.298 93.751C120.001 93.9862 117.694 93.9704 115.393 94.0618C111.495 94.3414 107.579 94.2047 103.71 93.6541C100.547 93.1318 97.5843 91.7628 95.1368 89.6922C94.4552 89.1646 93.9372 88.4545 93.643 87.6443C93.5301 87.3176 93.5506 86.9594 93.7001 86.6477C93.8496 86.3359 94.116 86.0957 94.4414 85.9791C95.1817 85.5848 95.2703 86.3124 95.505 86.6739C96.2559 87.8508 97.3186 88.7963 98.5748 89.4051C100.971 90.5337 103.56 91.1981 106.204 91.3632C110.921 91.5993 115.648 91.5621 120.361 91.2517C123.712 91.0762 127.002 90.281 130.063 88.9063C131.494 88.3001 132.056 87.5098 131.207 86.0878C131.181 85.7499 131.086 85.4209 130.929 85.1209C130.771 84.8209 130.554 84.5563 130.29 84.3433C129.197 83.1825 127.972 82.1538 126.639 81.2781C121.894 78.3403 116.625 77.1841 111.142 76.8571C107.671 76.5134 104.167 76.9319 100.875 78.0832C99.0912 78.6812 97.4382 79.6137 96.0042 80.8307L96.0171 80.8592C95.897 80.8434 95.8545 80.9201 95.8288 81.0168C95.8201 81.0083 95.8093 81.0022 95.7975 80.9991C95.7857 80.9959 95.7733 80.9958 95.7615 80.9988C95.7497 81.0018 95.7388 81.0077 95.7299 81.0161C95.7211 81.0244 95.7145 81.0349 95.7108 81.0465L95.7191 81.0557C95.1635 81.4433 94.6817 81.9272 94.2967 82.4846L94.2942 82.4886L93.9157 83.0518L93.9105 83.0455L93.6989 83.2504L93.4413 83.6761L93.2547 84.0533L93.2591 84.0648L93.0727 84.416ZM6.21989 86.7745L6.22127 86.7802C6.21023 87.0275 6.15963 87.2826 6.36065 87.4886L6.36985 87.5218C6.3382 87.7588 6.39241 87.9992 6.52266 88.1997L6.53812 88.2479C6.55025 88.4242 6.57868 88.5991 6.62304 88.7701C7.77883 92.0163 10.1439 94.2606 12.8765 96.1661C15.8397 98.347 19.1437 100.022 22.6542 101.124C23.4483 101.391 24.2862 101.502 25.1224 101.453C25.1008 101.374 25.0726 101.297 25.0381 101.223C23.3094 98.5332 21.4991 95.888 20.5251 92.793C20.4896 92.6162 20.4105 92.451 20.295 92.3125C20.1794 92.1741 20.0311 92.0666 19.8635 92.0001C18.4943 91.6474 17.4284 90.6997 16.1535 90.1693C13.4947 88.5669 10.9457 86.8039 8.43994 84.9728C7.30558 84.1438 7.06243 84.246 6.37491 85.518C6.31695 85.551 6.27195 85.6028 6.24732 85.6648C6.22269 85.7268 6.21989 85.7953 6.2394 85.8591L6.18208 86.3651C6.13541 86.4254 6.11336 86.5012 6.12037 86.5772C6.12739 86.6532 6.16295 86.7237 6.21989 86.7745ZM8.7463 81.2729C8.72238 81.6014 8.76461 81.9315 8.87048 82.2434C8.97636 82.5554 9.14373 82.843 9.3627 83.0891C11.1031 85.2839 13.4611 86.7401 15.7097 88.3097C16.8845 89.1298 18.2121 89.7321 19.6553 90.5361C19.3389 89.5743 19.0603 88.8647 18.8733 88.1318C18.4617 86.5407 17.8616 85.0044 17.0855 83.5557C16.9744 82.9887 17.0985 82.2885 16.6454 81.8956C15.3852 80.6653 13.9884 79.583 12.4824 78.6698C10.8424 77.803 8.58641 79.4237 8.7463 81.2729ZM28.0791 42.648C27.1094 42.5313 26.1959 42.5071 25.6308 43.5496C25.3094 44.0822 25.1071 44.678 25.0378 45.2962C24.9685 45.9143 25.0338 46.5401 25.2292 47.1307C25.4247 47.7212 25.7456 48.2624 26.17 48.7171C26.5944 49.1719 27.1122 49.5294 27.6878 49.7651C29.6522 50.6327 31.5456 51.6528 33.3507 52.8161C33.9181 53.1734 34.2305 53.236 34.5399 52.4983C35.0522 51.2768 35.6807 50.1034 36.2752 48.917C36.9815 47.5072 36.9882 47.5106 35.5601 47.0114C33.9777 45.9514 32.3958 44.8911 30.8144 43.8304C30.0206 43.2057 29.078 42.7982 28.0791 42.648ZM41.9527 40.1963C42.2402 39.8626 42.5467 39.5459 42.8708 39.2476C43.2363 38.944 43.2211 38.7066 42.9124 38.3762C39.8178 34.8903 36.1457 31.9636 32.0573 29.7246C30.8954 29.1229 29.5689 28.7294 28.3925 29.8673C27.9444 30.188 27.5988 30.6317 27.3977 31.1447C27.1967 31.6578 27.1487 32.2181 27.2596 32.7579C27.4399 35.5051 28.4356 38.1361 30.1193 40.3145C32.1075 42.6338 34.5298 44.5422 37.25 45.9324C37.3193 45.9893 37.4007 46.0296 37.488 46.0502C37.5753 46.0707 37.6661 46.071 37.7535 46.051C37.841 46.031 37.9226 45.9913 37.9923 45.9348C38.062 45.8784 38.1178 45.8067 38.1555 45.7254C39.2653 43.7747 40.6695 42.0272 41.9527 40.1963ZM66.943 26.1346C67.0764 26.4393 67.8717 26.1771 67.5652 26.8586C64.9936 27.6831 62.3072 28.1878 59.8404 29.2889C55.1512 31.3632 50.9473 34.3946 47.4982 38.1886C45.9672 39.5088 44.5911 40.9986 43.3964 42.6295C42.9834 43.1657 42.5592 43.6938 42.1589 44.2395C39.9238 47.3014 38.0382 50.6037 36.5371 54.0848C36.4417 54.3044 36.2924 54.5596 36.6132 54.6818C37.6301 55.0696 38.3213 55.9275 39.2394 56.4536C41.3447 58.0164 43.3681 59.6867 45.3015 61.4578C49.256 65.4206 52.6363 69.735 53.9542 75.3394C54.2302 76.5135 54.2689 76.5044 53.0415 76.6805C52.657 76.2979 52.3763 75.8236 52.2261 75.3023C49.8235 69.8372 46.1599 65.0193 41.5357 61.2435C33.8741 55.0767 25.4715 50.2616 15.8558 47.7825C14.1738 47.3488 12.4919 47.0578 10.8934 48.0269C10.2743 48.4022 9.62812 48.8119 9.61561 49.68L9.26288 49.9916L9.19535 50.0159L9.27089 49.9994L9.28929 50.2754C8.95588 53.02 9.72577 55.7847 11.4298 57.9619C14.473 62.2141 18.6645 65.0019 23.2822 67.2716C24.6836 67.7999 26.0381 68.445 27.3314 69.2002C23.4832 68.2038 19.7449 66.823 16.173 65.0786C15.4417 64.6941 14.6788 64.373 13.8927 64.1188C12.834 63.7668 12.3442 64.0185 11.8465 65.0175C11.5761 65.5571 11.426 66.1491 11.4066 66.7524C11.3873 67.3557 11.4992 67.9561 11.7346 68.5119C11.9861 69.7265 12.5447 70.8564 13.3573 71.7936C15.7983 74.8233 18.9605 77.1922 22.5541 78.6835C24.5191 79.5575 26.6121 79.9883 28.6304 80.659C30.0675 81.1365 31.6704 81.1636 33.1115 81.7691L28.9676 81.683L28.7718 81.6803L28.4319 81.6639C28.1983 81.5789 27.9434 81.5727 27.7059 81.6463C27.6537 81.6253 27.5965 81.62 27.5413 81.6312C27.6523 81.3128 28.0176 81.5247 28.2878 81.2776C27.097 81.4301 25.8892 81.3863 24.7125 81.1479C23.4994 80.9051 22.2644 80.6522 21.0551 80.3439C20.9207 80.2856 20.7747 80.2587 20.6283 80.2654C20.4819 80.2721 20.339 80.3121 20.2104 80.3825C20.0818 80.4528 19.9711 80.5516 19.8865 80.6713C19.802 80.791 19.7459 80.9285 19.7226 81.0731C19.4617 81.2645 19.512 81.5515 19.4926 81.8173C19.5508 82.565 19.7708 83.2911 20.1374 83.9454C20.5039 84.5997 21.0083 85.1665 21.6155 85.6065C23.7999 87.2843 26.2905 88.5198 28.9479 89.244C32.9401 90.4254 37.0911 90.9816 41.2535 90.8928C45.7665 90.9352 49.8987 89.9093 53.4227 86.9889C54.1105 86.4185 54.9761 85.8935 54.9978 84.8074C55.0679 84.6867 55.0878 84.4883 55.2738 84.513C55.5229 84.546 55.4645 84.7589 55.4545 84.927C55.2933 86.1196 54.8982 87.2686 54.2917 88.3081C53.1997 89.6118 51.8868 90.7132 50.413 91.5618C47.9286 92.8854 45.1457 93.5481 42.3314 93.4864C39.0539 93.4353 35.7856 93.1238 32.5575 92.5548C28.8321 91.8802 25.137 91.045 22.0303 88.664C22.0093 88.6479 21.9431 88.6905 21.8739 88.7138C21.8865 88.8294 21.9082 88.9438 21.9388 89.0559C22.1363 89.6114 22.3422 90.1638 22.5446 90.7176C24.5762 96.2458 27.7123 101.302 31.7617 105.579C33.8313 107.662 36.067 109.572 38.4467 111.292C42.5351 114.364 47.0266 116.86 51.7949 118.71C55.6908 120.286 59.7828 121.325 63.9585 121.799C69.1122 122.462 74.3322 122.42 79.4747 121.675C82.4459 121.226 85.3824 120.571 88.2628 119.715C97.1268 117.091 105.1 112.084 111.314 105.24C112.168 104.448 112.91 103.544 113.52 102.552C113.035 102.668 112.7 102.745 112.365 102.828C110.969 103.203 109.53 103.401 108.084 103.417C105.186 103.415 102.312 102.905 99.5899 101.912C96.8104 100.965 94.3371 99.2867 92.4298 97.054C91.4687 95.8641 90.6656 94.5549 90.0404 93.159L90.0241 93.128C90.0428 93.0618 90.0416 92.9916 90.0206 92.9262C89.9996 92.8607 89.9598 92.8029 89.906 92.76C89.4477 90.9371 89.3588 89.041 89.6446 87.1833C86.8498 89.1444 83.8026 88.7676 80.8165 88.4485C77.5695 88.0358 74.5198 86.6625 72.0586 84.5048C68.0189 81.2084 65.2173 76.6387 64.1122 71.5431C63.4049 68.6136 63.2069 65.5843 63.5267 62.5877C63.9355 58.914 65.1479 55.3754 67.0779 52.2229C69.071 48.7693 72.0888 46.0208 75.7132 44.3583C77.3926 43.6558 79.1785 43.2414 80.9957 43.1325C83.883 42.7159 86.82 43.4247 89.1994 45.1124L89.3133 45.1969C89.3604 45.2362 89.4076 45.2755 89.4549 45.3148C89.5047 45.4371 89.5298 45.5682 89.5288 45.7003C89.5279 45.8324 89.5008 45.9631 89.4492 46.0847C89.187 45.9623 88.8992 45.9271 88.6255 45.8244C85.0321 44.3528 81.0089 44.3272 77.397 45.7529C72.1622 47.863 68.9292 51.8964 66.9876 57.0618C65.1613 61.9205 65.412 66.9523 66.3501 71.8662C67.1558 75.775 69.2263 79.3097 72.2417 81.9242C74.9269 84.4871 78.3217 86.1819 81.9839 86.788C84.3338 87.2376 86.7492 87.2199 89.0923 86.7359C89.3484 86.6951 89.5861 86.5778 89.7743 86.3994C89.9625 86.221 90.0923 85.9898 90.1466 85.7362C90.8846 83.1395 92.3739 80.8189 94.4272 79.0662C95.4553 78.2311 96.5314 77.457 97.6501 76.7478C100.254 75.6348 102.994 74.8702 105.798 74.4741C108.261 74.5009 110.724 74.4524 113.184 74.6121C111.263 70.1144 111.018 68.8319 111.1 63.6961C111.117 62.6401 111.176 61.5879 111.245 60.5331C111.308 58.5639 111.706 56.6199 112.421 54.784C112.588 54.2618 112.857 53.7779 113.213 53.3602C113.568 52.9426 114.003 52.5995 114.491 52.3507C115.365 51.9619 116.354 51.9235 117.255 52.2433C118.156 52.5631 118.9 53.2167 119.333 54.0692C119.994 55.3527 120.449 56.7325 120.68 58.1577C121.722 63.0319 121.495 68.0922 120.02 72.8533C119.856 73.4498 119.598 74.0166 119.257 74.5327C118.664 75.4236 118.733 75.4914 119.799 75.7839C121.239 76.0544 122.632 76.5312 123.935 77.1994C124.318 77.4357 124.37 77.2415 124.435 76.9326C124.929 74.5772 125.21 72.1821 125.275 69.7763C125.484 65.6254 124.966 61.4698 123.742 57.4978C122.851 54.5281 121.476 51.7255 119.674 49.2027C119.188 48.5319 118.57 47.967 117.859 47.5421C117.148 47.1173 116.357 46.8415 115.536 46.7313C114.715 46.6212 113.88 46.6791 113.082 46.9015C112.284 47.1239 111.54 47.5062 110.894 48.0251C111.164 47.2823 111.645 46.6341 112.277 46.1591C112.909 45.6841 113.665 45.4027 114.454 45.3492C114.774 45.3412 115.089 45.2617 115.374 45.1163C116.095 45.3178 116.836 45.4372 117.583 45.4723C116.423 44.0117 115.386 42.6187 114.259 41.3016C108.052 34.0428 100.624 28.6042 91.2663 26.0929C88.523 25.2214 85.6518 24.8215 82.7747 24.9103C82.6443 24.9302 82.511 24.9224 82.3838 24.8873C82.2565 24.8522 82.1381 24.7906 82.0363 24.7066C80.0423 23.1407 77.9288 21.7331 75.7152 20.4968C73.3258 19.0016 70.7571 17.8143 68.07 16.9629C64.817 15.8327 61.3752 15.3459 57.9363 15.5297C55.8897 15.5403 53.9008 16.2091 52.2637 17.4373C51.8127 17.7479 51.443 18.1625 51.186 18.6461C50.929 19.1297 50.7922 19.6681 50.7872 20.2157C50.651 20.5853 50.6125 20.9837 50.6754 21.3725C50.7382 21.7613 50.9003 22.1273 51.146 22.4352C51.4079 23.189 51.9319 23.8236 52.6226 24.2234C55.069 25.9891 57.9136 26.3994 60.8174 26.5418C62.7015 26.57 64.584 26.4164 66.4386 26.0831L66.943 26.1346ZM119.467 57.6323C119.533 56.9099 119.367 56.1852 118.995 55.5627C118.622 54.9402 118.062 54.4521 117.394 54.1686C117.032 53.975 116.621 53.8925 116.213 53.9315C115.804 53.9706 115.416 54.1294 115.097 54.388C114.649 54.81 114.311 55.3351 114.112 55.9177C113.913 56.5002 113.859 57.1225 113.956 57.7305C114.052 58.3385 114.295 58.9137 114.665 59.4062C115.034 59.8986 115.518 60.2934 116.075 60.5562C116.412 60.7067 116.785 60.7578 117.15 60.7035C117.516 60.6492 117.858 60.4918 118.137 60.2497C118.559 59.959 118.902 59.5672 119.135 59.11C119.367 58.6529 119.481 58.1449 119.467 57.6323ZM12.9006 78.5003C14.1772 78.7362 15.0014 79.7314 16.0694 80.3048C16.3309 80.4452 16.5273 80.8348 16.8838 80.4704C17.1977 79.8606 17.386 79.194 17.4376 78.51C17.3662 78.4617 17.2854 78.4289 17.2005 78.4136C15.7832 78.076 14.3031 78.1058 12.9006 78.5003Z" fill="#04020F"/>
<path d="M84.6281 34.8321C84.6465 35.7337 84.1044 36.1637 83.1884 36.1093C79.8501 35.9107 76.5994 36.0895 73.7455 38.1885C73.195 38.5933 72.5311 39.3818 71.6914 38.4387C71.4943 38.2689 71.3566 38.0405 71.2984 37.7869C71.2403 37.5333 71.2647 37.2677 71.3682 37.029C71.6577 36.3776 72.1201 35.8179 72.7052 35.4108C75.8563 33.0306 79.416 32.5986 83.184 33.3556C83.5548 33.4056 83.8983 33.578 84.1599 33.8455C84.4216 34.113 84.5863 34.4602 84.6281 34.8321Z" fill="#29155D"/>
<path d="M93.7072 65.0766C93.8065 68.0644 93.2308 71.0361 92.0229 73.7707C91.6113 74.7459 90.999 75.6236 90.2259 76.3466C89.8965 76.691 89.4976 76.9613 89.0557 77.1396C88.6138 77.3178 88.1389 77.3998 87.6628 77.3802C87.1867 77.3606 86.7203 77.2398 86.2945 77.0259C85.8687 76.8119 85.4934 76.5098 85.1935 76.1395C83.804 74.5201 82.8952 72.5442 82.5701 70.4353C81.7996 66.0422 81.8712 61.5427 82.7811 57.1764C82.9945 56.0125 83.4725 54.9131 84.1782 53.9632C86.0438 51.4826 88.4126 51.2047 90.7182 53.3392C92.1226 54.6394 92.5357 56.4566 93.04 58.2047C93.1999 58.769 93.3154 59.3449 93.3854 59.9272C93.6088 61.6345 93.7163 63.3549 93.7072 65.0766ZM88.4144 60.728C88.8297 60.7554 89.2445 60.6669 89.6125 60.4723C91.4913 59.5996 91.9699 56.679 90.5122 54.9261C90.2185 54.5172 89.8111 54.2036 89.3406 54.0245C88.8702 53.8453 88.3574 53.8085 87.8661 53.9185C87.2671 53.9715 86.6994 54.2098 86.2419 54.6002C85.7844 54.9905 85.4599 55.5137 85.3133 56.097C85.2178 56.7402 85.2654 57.3965 85.4529 58.0192C85.6404 58.6418 85.963 59.2154 86.3978 59.6989C86.6291 60.0172 86.9323 60.2763 87.2827 60.4551C87.6332 60.634 88.0209 60.7275 88.4144 60.728Z" fill="#04020F"/>
<path d="M19.4929 81.8172C19.5118 81.5514 19.4616 81.2643 19.7223 81.0731C20.9291 81.0107 22.1391 81.0839 23.3296 81.2914C24.7091 81.6113 26.1283 81.7257 27.5412 81.6311C27.5964 81.6199 27.6536 81.6251 27.7059 81.6461C27.752 81.6956 27.8075 81.7354 27.8692 81.7631C27.9309 81.7909 27.9975 81.806 28.0651 81.8076C28.1327 81.8093 28.2 81.7974 28.263 81.7727C28.3259 81.7479 28.3833 81.7109 28.4318 81.6637L28.7716 81.6801C28.7807 81.6981 28.7945 81.7134 28.8116 81.7241C28.8288 81.7348 28.8485 81.7406 28.8687 81.7409C28.8889 81.7412 28.9088 81.7359 28.9262 81.7257C28.9436 81.7155 28.9579 81.7006 28.9675 81.6828L33.1121 81.7691C34.285 81.9071 35.4737 81.8089 36.6081 81.4804C36.7988 81.4454 36.9706 81.3428 37.0916 81.1913C37.2126 81.0398 37.2749 80.8496 37.2668 80.6559C37.241 80.2609 36.8276 80.2465 36.5065 80.209C35.8067 80.1273 35.0995 80.0894 34.4067 79.9684C31.0786 79.3731 27.8211 78.4345 24.6864 77.1678C20.7542 75.5977 17.0349 73.6788 14.0722 70.5635C13.3859 69.8418 12.8065 69.02 12.1471 68.2713C11.7223 67.7888 11.7423 68.2069 11.7346 68.5118C11.4992 67.9559 11.3873 67.3556 11.4067 66.7522C11.426 66.1489 11.5761 65.557 11.8466 65.0173C12.3443 64.0184 12.8341 63.7667 13.8927 64.1187C14.6785 64.373 15.4411 64.6942 16.1721 65.0788C19.7441 66.8232 23.4825 68.204 27.3308 69.2004L27.3999 69.2478L27.6178 69.3393C28.8169 69.8251 30.0832 70.1246 31.3728 70.2276C32.0996 70.3556 33.1932 70.4398 33.3636 69.8436C33.5413 69.2215 32.6171 68.6955 31.8874 68.4527C29.3598 67.6573 26.888 66.6945 24.4884 65.5705C21.3962 64.0676 18.4831 62.2214 15.8039 60.0667C14.0069 58.682 12.4568 57.0036 11.2191 55.1023C10.1785 53.6822 9.5142 52.0217 9.28821 50.2757L9.26981 49.9997L9.26172 49.9915C9.37929 49.8877 9.49687 49.7839 9.61445 49.6802C10.2509 49.2761 10.9765 49.0337 11.728 48.9741C12.4796 48.9145 13.2343 49.0395 13.9265 49.3382C16.2643 50.1085 18.5944 50.9114 20.8522 51.9002C22.7675 52.7394 24.6718 53.5881 26.5203 54.5846C30.015 56.4685 33.4804 58.3878 36.7973 60.5757C40.6 63.0774 44.0355 66.0969 47.0047 69.5469C48.9028 71.7497 50.3792 74.2364 52.0508 76.5912C52.3777 77.0518 52.6415 77.3966 53.0407 76.6804C54.268 76.5044 54.2294 76.5135 53.9533 75.3394C52.6356 69.7348 49.2553 65.4205 45.3012 61.4577C43.3679 59.6866 41.3447 58.0164 39.2395 56.4536C39.7366 54.5266 40.4582 52.6647 41.3895 50.906C42.3916 48.7518 43.5055 46.6513 44.7266 44.6132C45.1621 43.9455 44.6346 43.3926 44.3939 42.8175C44.1591 42.2563 43.728 42.6991 43.3965 42.6297C44.591 40.9989 45.9669 39.5092 47.4978 38.1891C48.335 38.3854 49.117 38.6747 49.9073 37.8925C51.8407 36.1515 53.9651 34.6353 56.24 33.3728C57.7352 32.3855 59.3041 31.5147 60.933 30.7682C63.6051 29.7356 66.3501 28.9029 69.1455 28.2768C71.825 27.5899 74.5905 27.6536 77.3172 27.383C78.2614 27.3542 79.2064 27.3968 80.1442 27.5104C85.1926 27.7422 90.1776 28.7292 94.9334 30.4386C97.5064 31.3809 99.9829 32.5682 102.329 33.9841C105.393 35.7665 108.245 37.8931 110.827 40.3224C112.409 41.8579 114.252 43.1444 115.373 45.1156C115.088 45.261 114.773 45.3405 114.453 45.3485C113.664 45.4022 112.908 45.6837 112.276 46.1588C111.644 46.6339 111.163 47.2822 110.892 48.025C110.423 48.592 109.82 49.0221 109.374 49.622C107.95 51.5782 106.957 53.8151 106.463 56.184C105.582 59.7327 105.25 63.3953 105.478 67.0446C105.568 69.16 105.785 71.2681 106.13 73.3572C106.201 73.6989 106.621 74.3232 105.798 74.474C102.994 74.8702 100.255 75.6345 97.6505 76.7471C98.012 75.6001 98.46 74.4729 98.7197 73.304C99.9768 68.035 99.8313 62.5286 98.2977 57.3333C97.0345 52.8574 94.147 49.0138 90.1999 46.5541C90.5106 46.4984 90.6407 46.3451 90.3814 46.0941C90.0921 45.8141 89.8737 45.443 89.4549 45.3145C89.4078 45.2752 89.3606 45.2359 89.3135 45.197C89.3029 45.1746 89.287 45.1552 89.2671 45.1404C89.2472 45.1256 89.224 45.1159 89.1995 45.1121C86.8201 43.4244 83.8831 42.7155 80.9959 43.1322C79.1786 43.241 77.3928 43.6555 75.7133 44.358C72.0887 46.0204 69.0708 48.7688 67.0776 52.2225C65.1475 55.375 63.9351 58.9138 63.5264 62.5875C63.2066 65.5843 63.4047 68.6137 64.112 71.5434C65.2172 76.6389 68.0187 81.2086 72.0584 84.505C74.5196 86.6627 77.5693 88.0359 80.8162 88.4487C83.8022 88.7679 86.8495 89.1446 89.6442 87.1835C89.3585 89.0412 89.4474 90.9372 89.9054 92.76C89.8882 92.7918 89.8777 92.8267 89.8743 92.8627C89.871 92.8986 89.875 92.9349 89.886 92.9693C89.8971 93.0037 89.915 93.0354 89.9387 93.0627C89.9623 93.09 89.9913 93.1122 90.0237 93.128L90.0398 93.1588C89.9711 94.4829 90.1323 95.809 90.5163 97.078C91.2437 100.323 93.4375 102.595 95.9835 104.533C97.7756 105.853 99.9016 106.645 102.121 106.82C102.507 106.859 103.112 106.828 103.212 107.227C103.318 107.645 102.728 107.801 102.419 108.039C102.134 108.25 101.832 108.435 101.515 108.592C98.7079 109.953 95.7554 110.99 92.7141 111.683C88.582 112.745 84.346 113.353 80.0818 113.494C75.3068 113.737 70.5196 113.566 65.7742 112.982C62.3961 112.507 59.0656 111.739 55.8198 110.689C50.685 109.092 45.7812 106.831 41.2332 103.962C39.586 103.043 38.0202 101.986 36.5528 100.801C36.3184 100.587 35.8928 100.375 35.9732 100.077C36.0765 99.6955 36.5375 99.899 36.8354 99.8939C38.4592 99.9856 40.0874 99.9581 41.7072 99.8116C44.2848 99.4369 46.73 98.4315 48.8257 96.8847C51.7013 94.6882 53.8423 92.0398 54.2905 88.3085C54.8969 87.269 55.2921 86.12 55.4533 84.9274C55.4632 84.7594 55.5216 84.5465 55.2726 84.5134C55.0869 84.4888 55.067 84.6872 54.9972 84.8078C54.2144 84.8595 53.8308 85.5548 53.2308 85.9026C50.3464 87.5886 47.0916 88.5396 43.7532 88.6718C39.4867 89.0025 35.1948 88.7225 31.0075 87.8401C28.165 87.1869 25.4228 86.1557 22.8542 84.7741C21.5908 83.9639 20.4576 82.9669 19.4929 81.8172ZM84.6289 34.8319C84.5872 34.4602 84.4224 34.113 84.1609 33.8455C83.8993 33.5781 83.5559 33.4056 83.1851 33.3556C79.4169 32.5986 75.8572 33.0306 72.7063 35.4108C72.1212 35.8178 71.6588 36.3774 71.3693 37.0287C71.2658 37.2675 71.2413 37.533 71.2995 37.7866C71.3576 38.0402 71.4953 38.2686 71.6925 38.4384C72.5321 39.3815 73.196 38.5931 73.7465 38.1882C76.6005 36.0894 79.8511 35.9106 83.1894 36.109C84.1053 36.1636 84.6475 35.734 84.6289 34.8319Z" fill="#FDABE3"/>
<path d="M54.2913 88.3079C53.843 92.0392 51.7019 94.6876 48.8265 96.884C46.7308 98.4309 44.2856 99.4363 41.708 99.811C40.0882 99.9574 38.46 99.9849 36.8362 99.8932C36.5383 99.8984 36.0773 99.6949 35.974 100.076C35.8932 100.374 36.3188 100.586 36.5536 100.801C38.021 101.985 39.5868 103.043 41.234 103.961C45.782 106.83 50.6858 109.092 55.8206 110.689C59.0663 111.739 62.3969 112.506 65.775 112.982C70.5204 113.566 75.3076 113.737 80.0826 113.493C84.3468 113.352 88.5828 112.745 92.7149 111.682C95.7562 110.989 98.7087 109.952 101.516 108.592C101.833 108.434 102.135 108.249 102.42 108.039C102.729 107.801 103.319 107.644 103.213 107.226C103.112 106.827 102.508 106.859 102.122 106.819C99.9025 106.645 97.7764 105.852 95.9843 104.532C93.4383 102.594 91.2445 100.322 90.5171 97.0774C90.1331 95.8083 89.9719 94.4823 90.0406 93.1582C90.666 94.5541 91.4692 95.8634 92.4303 97.0534C94.3376 99.286 96.8109 100.964 99.5904 101.911C102.312 102.904 105.187 103.414 108.084 103.416C109.53 103.401 110.969 103.203 112.366 102.827C112.7 102.744 113.036 102.667 113.52 102.551C112.91 103.543 112.168 104.447 111.315 105.239C105.101 112.084 97.1273 117.091 88.2633 119.715C85.3828 120.571 82.4464 121.226 79.4752 121.675C74.3327 122.42 69.1127 122.461 63.959 121.798C59.7833 121.325 55.6913 120.286 51.7954 118.71C47.0271 116.861 42.5356 114.364 38.4471 111.292C36.0675 109.572 33.8317 107.662 31.7621 105.579C27.7123 101.302 24.5757 96.2458 22.5437 90.7173C22.3413 90.1636 22.1354 89.6111 21.938 89.0556C21.9074 88.9435 21.8856 88.8291 21.873 88.7136C21.9427 88.6902 22.0088 88.6476 22.0294 88.6637C25.1362 91.0448 28.8313 91.8799 32.5566 92.5546C35.7848 93.1235 39.053 93.4351 42.3305 93.4862C45.1448 93.5479 47.9278 92.8851 50.4122 91.5615C51.8861 90.713 53.1992 89.6116 54.2913 88.3079Z" fill="#F969A6"/>
<path d="M90.1998 46.5541C94.1468 49.0138 97.0343 52.8574 98.2975 57.3333C99.8312 62.5286 99.9767 68.035 98.7196 73.3041C98.4598 74.4725 98.0119 75.6001 97.6503 76.7472C96.5317 77.4565 95.4555 78.2306 94.4272 79.0656C92.3739 80.8182 90.8846 83.1388 90.1466 85.7356C90.0923 85.9891 89.9625 86.2203 89.7743 86.3987C89.5861 86.5771 89.3484 86.6944 89.0923 86.7352C86.7493 87.2193 84.3338 87.2369 81.9839 86.7873C78.3217 86.1812 74.9269 84.4864 72.2417 81.9235C69.2263 79.3091 67.1558 75.7743 66.3501 71.8655C65.4117 66.9516 65.1613 61.9198 66.9876 57.0611C68.9288 51.8957 72.1618 47.8623 77.397 45.7522C81.0089 44.3265 85.0321 44.3521 88.6255 45.8237C88.8992 45.9264 89.1867 45.9617 89.4497 46.0843C89.7 46.2412 89.95 46.3979 90.1998 46.5541ZM93.7073 65.0765C93.7164 63.3546 93.6088 61.6341 93.3853 59.9267C93.3153 59.3444 93.1997 58.7685 93.0398 58.2042C92.5356 56.4562 92.1225 54.6389 90.7181 53.3387C88.4125 51.2043 86.0437 51.4821 84.1781 53.9627C83.4723 54.9126 82.9943 56.0119 82.781 57.1759C81.8711 61.5423 81.7996 66.042 82.5701 70.4351C82.8953 72.5439 83.8039 74.5197 85.1932 76.1391C85.4931 76.5094 85.8685 76.8116 86.2943 77.0255C86.72 77.2395 87.1865 77.3603 87.6626 77.3799C88.1387 77.3995 88.6136 77.3174 89.0555 77.1392C89.4974 76.961 89.8963 76.6907 90.2256 76.3463C90.9988 75.6233 91.6111 74.7456 92.0227 73.7703C93.2306 71.0359 93.8064 68.0642 93.7073 65.0765Z" fill="#ECF1FD"/>
<path d="M105.798 74.474C106.621 74.3231 106.2 73.6989 106.13 73.3572C105.785 71.2681 105.567 69.16 105.478 67.0446C105.25 63.3954 105.582 59.7329 106.464 56.1844C106.958 53.8154 107.95 51.5786 109.375 49.6223C109.82 49.0225 110.423 48.5919 110.893 48.0254C111.539 47.5063 112.283 47.124 113.081 46.9015C113.879 46.679 114.714 46.621 115.536 46.7311C116.357 46.8412 117.147 47.117 117.859 47.5418C118.57 47.9667 119.188 48.5316 119.674 49.2024C121.476 51.7253 122.851 54.5278 123.742 57.4975C124.966 61.4696 125.484 65.6251 125.275 69.776C125.21 72.1818 124.929 74.577 124.435 76.9324C124.37 77.2414 124.318 77.4356 123.935 77.1992C122.632 76.5309 121.238 76.0542 119.799 75.7836C118.733 75.4913 118.664 75.4235 119.257 74.5324C119.598 74.0163 119.855 73.4495 120.02 72.8531C121.495 68.092 121.722 63.0317 120.68 58.1575C120.449 56.7323 119.994 55.3525 119.332 54.069C118.9 53.2165 118.156 52.5629 117.255 52.2431C116.354 51.9233 115.365 51.9617 114.491 52.3505C114.002 52.5992 113.568 52.9423 113.213 53.36C112.857 53.7777 112.588 54.2616 112.421 54.7838C111.706 56.6196 111.308 58.5637 111.245 60.5329C111.176 61.5877 111.117 62.6397 111.1 63.6958C111.017 68.8317 111.263 70.1141 113.184 74.6114C110.724 74.4525 108.26 74.501 105.798 74.474Z" fill="#ECF1FD"/>
<path d="M115.373 45.1158C114.253 43.1445 112.409 41.858 110.827 40.3226C108.245 37.8932 105.394 35.7667 102.329 33.9842C99.9831 32.5684 97.5066 31.3811 94.9336 30.4387C90.1778 28.7294 85.1928 27.7423 80.1444 27.5106C79.2066 27.3969 78.2616 27.3543 77.3174 27.3831C74.5908 27.6537 71.825 27.59 69.1457 28.2769C66.3503 28.903 63.6053 29.7358 60.9332 30.7684C59.3043 31.5149 57.7354 32.3856 56.2402 33.3729C53.9653 34.6352 51.8409 36.1513 49.9075 37.8921C49.1169 38.6741 48.3353 38.385 47.498 38.1887C50.9471 34.3946 55.1511 31.3631 59.8403 29.2888C62.3071 28.1877 64.9935 27.683 67.5654 26.8585L68.3512 26.8217C68.4035 26.8446 68.4623 26.8484 68.5171 26.8322C68.5719 26.816 68.6192 26.781 68.6506 26.7333L68.7223 26.7482C69.4884 26.7582 70.2535 26.6899 71.0057 26.5443C73.5911 26.337 76.1608 25.9654 78.699 25.4316C79.3484 25.3107 79.3749 24.9268 78.9934 24.4869C78.7997 24.2638 78.5641 24.0807 78.3001 23.948C75.901 22.7691 73.5735 21.4444 71.0903 20.4366C67.9698 19.1133 64.6543 18.3079 61.2744 18.0519C59.1356 17.826 56.9754 17.9106 54.8608 18.3033C53.3983 18.6892 52.018 19.3373 50.7869 20.2161C50.7919 19.6684 50.9287 19.1301 51.1857 18.6465C51.4427 18.1629 51.8123 17.7483 52.2634 17.4377C53.9005 16.2093 55.8895 15.5403 57.9362 15.5296C61.3747 15.3457 64.8161 15.8323 68.0688 16.9622C70.7558 17.8136 73.3246 19.0009 75.714 20.4961C77.9276 21.7324 80.0411 23.1399 82.0351 24.7058C82.1369 24.7899 82.2553 24.8515 82.3825 24.8866C82.5098 24.9217 82.643 24.9295 82.7735 24.9095C85.6506 24.8208 88.5218 25.2206 91.2651 26.0922C100.623 28.6038 108.05 34.0423 114.258 41.3009C115.384 42.618 116.422 44.0109 117.582 45.4715C116.835 45.4365 116.094 45.3172 115.373 45.1158Z" fill="#ECF1FD"/>
<path d="M50.7856 20.2157C52.0167 19.337 53.397 18.6889 54.8595 18.303C56.9741 17.9103 59.1343 17.8257 61.2731 18.0516C64.6531 18.3075 67.9688 19.113 71.0895 20.4363C73.5727 21.444 75.9002 22.7687 78.2993 23.9476C78.5633 24.0804 78.7988 24.2635 78.9926 24.4866C79.3739 24.9265 79.3474 25.3104 78.6982 25.4313C76.1599 25.9651 73.5902 26.3367 71.0047 26.544C70.2526 26.6896 69.4875 26.7578 68.7215 26.7475C68.4102 25.7263 67.5972 26.1592 66.9419 26.1346L66.4376 26.083C66.3667 25.8371 66.1765 25.8011 65.9552 25.7921C63.2265 25.7898 60.5036 25.541 57.8196 25.0489C56.3709 24.8179 54.9976 24.2464 53.8127 23.3815C52.8774 22.8097 52.0488 22.0795 51.364 21.2236C50.8856 21.6447 51.4805 22.0894 51.1447 22.4352C50.899 22.1274 50.7369 21.7614 50.6739 21.3726C50.611 20.9838 50.6495 20.5854 50.7856 20.2157Z" fill="#FDABE3"/>
<path d="M41.9529 40.1963C40.6699 42.0271 39.2657 43.7746 38.1559 45.7249C38.1183 45.8063 38.0624 45.878 37.9928 45.9344C37.9231 45.9909 37.8414 46.0306 37.754 46.0506C37.6666 46.0706 37.5758 46.0703 37.4885 46.0498C37.4012 46.0292 37.3198 45.9889 37.2505 45.932C34.5302 44.5419 32.1078 42.6336 30.1195 40.3144C28.4358 38.1362 27.44 35.5053 27.2595 32.7582C27.1486 32.2184 27.1966 31.658 27.3977 31.145C27.5988 30.6319 27.9444 30.1882 28.3926 29.8676C29.5043 30.3672 30.7581 30.4944 31.7739 31.2715C32.2926 31.6683 32.5898 32.2507 33.1642 32.5963C35.6123 34.0672 37.5491 36.181 39.7927 37.9066C40.657 38.5707 41.066 39.5951 41.9529 40.1963Z" fill="#F969A6"/>
<path d="M53.0398 76.6804C52.6406 77.3965 52.3768 77.0517 52.0499 76.5911C50.3783 74.2359 48.9019 71.7496 47.0038 69.5468C44.0346 66.0968 40.5991 63.0774 36.7964 60.5756C33.4795 58.3877 30.0141 56.4684 26.5194 54.5845C24.6709 53.588 22.7666 52.7393 20.8514 51.9002C18.5935 50.911 16.2634 50.1085 13.9256 49.3382C13.2334 49.0393 12.4786 48.9143 11.727 48.9738C10.9754 49.0334 10.2498 49.2758 9.61328 49.6799C9.62579 48.8115 10.272 48.4019 10.8911 48.0266C12.4896 47.0575 14.1714 47.3485 15.8535 47.7822C25.4692 50.2613 33.8717 55.0764 41.5334 61.2431C46.1578 65.0189 49.8215 69.8368 52.2244 75.3019C52.3745 75.8233 52.6552 76.2977 53.0398 76.6804Z" fill="#ECF1FD"/>
<path d="M131.207 86.0872C129.827 85.8289 128.798 84.8758 127.606 84.2507C124.845 82.9143 121.963 81.8439 118.999 81.054C114.697 79.7472 110.201 79.1919 105.71 79.4125C104.208 79.4851 102.712 79.6719 101.215 79.8265C101.046 79.8758 100.867 79.8867 100.693 79.8586C100.519 79.8305 100.353 79.764 100.207 79.6639C99.9765 79.4603 99.685 79.3383 99.3779 79.3169C99.0707 79.2954 98.7651 79.3757 98.5081 79.5453C97.6477 79.9321 96.8661 80.4575 96.0039 80.8304C97.4381 79.6135 99.0911 78.6811 100.874 78.0831C104.167 76.9317 107.671 76.5132 111.142 76.8567C116.625 77.1835 121.893 78.34 126.639 81.2778C127.972 82.1535 129.197 83.1822 130.29 84.343C130.554 84.5559 130.771 84.8205 130.929 85.1204C131.086 85.4204 131.181 85.7494 131.207 86.0872Z" fill="#ECF1FD"/>
<path d="M35.559 47.0113C36.9871 47.5105 36.9804 47.5071 36.2741 48.9169C35.6798 50.1032 35.0511 51.2767 34.5388 52.4982C34.2294 53.2359 33.917 53.1733 33.3496 52.8159C31.5445 51.6527 29.651 50.6326 27.6866 49.765C27.111 49.5293 26.5932 49.1718 26.1688 48.7171C25.7444 48.2624 25.4235 47.7211 25.228 47.1306C25.0326 46.5401 24.9673 45.9143 25.0366 45.2961C25.1059 44.678 25.3082 44.0822 25.6296 43.5496C26.1947 42.507 27.1082 42.5312 28.0779 42.648C28.1942 42.7747 28.3207 42.8916 28.4561 42.9976C29.6252 43.775 30.9508 44.2948 32.0609 45.1693C32.9556 45.8741 33.849 46.5806 34.7313 47.3005C35.1892 47.6734 35.4596 47.612 35.559 47.0113Z" fill="#F969A6"/>
<path d="M19.4922 81.8173C20.457 82.9669 21.5905 83.9636 22.854 84.7736C25.4226 86.1552 28.1648 87.1864 31.0073 87.8397C35.1946 88.722 39.4865 89.0021 43.753 88.6713C47.0914 88.5391 50.3461 87.5882 53.2306 85.9022C53.8306 85.5544 54.2142 84.8591 54.997 84.8074C54.975 85.8929 54.1094 86.4189 53.4216 86.9889C49.898 89.9092 45.7655 90.9351 41.2524 90.8927C37.0904 90.9814 32.9398 90.4252 28.9479 89.244C26.2905 88.5198 23.7999 87.2842 21.6155 85.6065C21.0082 85.1664 20.5037 84.5997 20.1371 83.9454C19.7705 83.2911 19.5504 82.565 19.4922 81.8173Z" fill="#F969A6"/>
<path d="M6.18164 86.3658L6.23896 85.8598C6.2963 85.8261 6.34077 85.7742 6.36531 85.7124C6.38986 85.6506 6.39308 85.5823 6.37447 85.5185C7.06199 84.2461 7.30514 84.1443 8.4395 84.9733C10.9452 86.8041 13.4941 88.5674 16.1532 90.1697C16.1496 90.9663 16.3372 91.7522 16.7003 92.4613C17.3099 93.9214 17.7132 95.4592 17.8986 97.0305C16.0145 96.396 14.2494 95.4515 12.6762 94.236C12.3269 93.9634 11.938 93.7456 11.523 93.5903C10.4515 93.1126 9.54056 92.3358 8.8996 91.3532C8.0601 90.3617 7.32051 89.286 6.5374 88.2475L6.52287 88.1994C6.55617 87.9544 6.6823 87.6883 6.3696 87.5213L6.3604 87.4882C6.39664 87.2359 6.47264 86.9758 6.22074 86.7798L6.21927 86.7744L6.18164 86.3658Z" fill="#FDABE3"/>
<path d="M6.53711 88.2476C7.32021 89.2863 8.0598 90.3618 8.8993 91.3531C9.54026 92.3357 10.4512 93.1125 11.5227 93.5902C11.9377 93.7455 12.3266 93.9633 12.6759 94.2359C14.2492 95.4514 16.0142 96.3959 17.8983 97.0304C17.7129 95.4591 17.3096 93.9212 16.7 92.4612C16.3369 91.7521 16.1493 90.9662 16.1529 90.1696C17.4277 90.7 18.4935 91.6477 19.8628 92.0004C20.0303 92.067 20.1785 92.1744 20.294 92.3128C20.4095 92.4513 20.4886 92.6163 20.5241 92.7931C21.4981 95.8881 23.3084 98.5332 25.0371 101.223C25.0716 101.298 25.0998 101.374 25.1214 101.453C24.2852 101.502 23.4473 101.391 22.6532 101.124C19.1427 100.022 15.8387 98.3471 12.8754 96.1662C10.143 94.2607 7.77782 92.0164 6.62203 88.7702C6.57764 88.599 6.54921 88.424 6.53711 88.2476Z" fill="#F969A6"/>
<path d="M9.28702 50.2755C9.513 52.0216 10.1773 53.682 11.2179 55.1021C12.4556 57.0035 14.0057 58.682 15.8027 60.0668C18.4818 62.2215 21.3949 64.0678 24.487 65.5708C26.8867 66.6946 29.3586 67.6574 31.8864 68.4527C32.6161 68.6955 33.5403 69.2215 33.3626 69.8435C33.1922 70.4398 32.0989 70.3556 31.3718 70.2276C30.0823 70.1246 28.8162 69.8252 27.6173 69.3395L27.3989 69.2475L27.3298 69.2001C26.0364 68.4449 24.6818 67.7997 23.2803 67.2714C18.6626 65.0018 14.4711 62.214 11.4279 57.9617C9.72381 55.7846 8.95379 53.0201 9.28702 50.2755Z" fill="#F969A6"/>
<path d="M11.7344 68.5119C11.7424 68.2068 11.722 67.789 12.1469 68.2714C12.8063 69.0201 13.3857 69.8419 14.072 70.5636C17.0344 73.6789 20.754 75.5978 24.6862 77.1679C27.8209 78.4346 31.0784 79.3732 34.4065 79.9686C35.0992 80.0899 35.8065 80.1275 36.5063 80.2092C36.8274 80.2466 37.2408 80.261 37.2666 80.656C37.2747 80.8498 37.2124 81.0399 37.0914 81.1914C36.9703 81.3429 36.7986 81.4456 36.6079 81.4805C35.4735 81.8091 34.2848 81.9072 33.1119 81.7692C31.67 81.1636 30.0671 81.1365 28.63 80.6589C26.6118 79.9883 24.5188 79.5577 22.5538 78.6835C18.9601 77.1922 15.798 74.8233 13.3569 71.7935C12.5444 70.8563 11.9858 69.7265 11.7344 68.5119Z" fill="#F969A6"/>
<path d="M8.74633 81.2728C8.58644 79.4229 10.8426 77.8026 12.4831 78.6692C13.9891 79.5823 15.3858 80.6646 16.6461 81.895C17.0992 82.2879 16.9751 82.988 17.0861 83.5549C17.0828 84.5271 17.0835 85.4993 17.0751 86.4713C17.067 87.4097 17.0411 87.3927 16.2311 86.9949C15.3713 86.5727 14.771 85.7668 13.905 85.4102C12.8054 84.9207 11.8222 84.2035 11.0204 83.306C10.3328 82.5533 9.57095 81.8721 8.74633 81.2728Z" fill="#FDABE3"/>
<path d="M43.3965 42.6294C43.7277 42.6989 44.1591 42.2563 44.3939 42.8172C44.6347 43.3924 45.1621 43.9452 44.7266 44.6129C43.5056 46.651 42.3917 48.7515 41.3895 50.9057C40.4582 52.6644 39.7366 54.5264 39.2396 56.4533C38.3213 55.9272 37.6301 55.0693 36.6133 54.6815C36.2925 54.5592 36.4418 54.3043 36.5372 54.0844C38.0383 50.6034 39.9239 47.3011 42.1589 44.2391C42.559 43.6938 42.9832 43.1657 43.3965 42.6294Z" fill="#F969A6"/>
<path d="M41.9525 40.1962C41.0659 39.595 40.6569 38.5706 39.7927 37.9054C37.5491 36.1798 35.6123 34.066 33.1642 32.5951C32.5897 32.2499 32.2925 31.6674 31.7739 31.2703C30.7581 30.4932 29.5042 30.366 28.3926 29.8664C29.5688 28.7285 30.895 29.1221 32.0571 29.7238C36.1456 31.9627 39.8177 34.8894 42.9123 38.3754C43.221 38.7057 43.2361 38.9432 42.8707 39.2468C42.5466 39.5453 42.24 39.8623 41.9525 40.1962Z" fill="#FDABE3"/>
<path d="M119.466 57.6322C119.48 58.1448 119.366 58.6528 119.134 59.1099C118.901 59.5671 118.559 59.9589 118.136 60.2496C117.857 60.4917 117.515 60.6491 117.15 60.7034C116.784 60.7577 116.411 60.7066 116.074 60.5561C115.517 60.2933 115.033 59.8985 114.664 59.4061C114.295 58.9136 114.051 58.3384 113.955 57.7304C113.858 57.1224 113.912 56.5001 114.111 55.9176C114.31 55.335 114.648 54.8099 115.096 54.3879C115.415 54.1293 115.803 53.9705 116.212 53.9314C116.62 53.8924 117.031 53.9749 117.393 54.1685C118.061 54.452 118.622 54.9401 118.994 55.5626C119.367 56.1851 119.532 56.9098 119.466 57.6322Z" fill="#ECF1FD"/>
<path d="M8.74472 81.2728C9.56935 81.8722 10.3312 82.5534 11.0188 83.306C11.8206 84.2037 12.8038 84.921 13.9033 85.4106C14.7694 85.7672 15.3697 86.5731 16.2295 86.9953C17.0391 87.3931 17.0654 87.4102 17.0735 86.4717C17.0819 85.4997 17.0812 84.5274 17.0845 83.5553C17.8606 85.0041 18.4608 86.5404 18.8724 88.1316C19.059 88.8645 19.3376 89.5741 19.6544 90.5359C18.211 89.7322 16.8836 89.1299 15.7088 88.3095C13.4602 86.7398 11.1021 85.2837 9.36177 83.0889C9.14271 82.8428 8.97523 82.5553 8.86924 82.2434C8.76325 81.9315 8.72091 81.6014 8.74472 81.2728Z" fill="#F969A6"/>
<path d="M51.1445 22.4353C51.4803 22.0894 50.8849 21.6447 51.3638 21.2236C52.0486 22.0795 52.8773 22.8097 53.8125 23.3815C54.9974 24.2465 56.3707 24.8179 57.8194 25.0489C60.5034 25.541 63.2263 25.7898 65.9551 25.7922C66.1759 25.8014 66.3665 25.8372 66.4374 26.0831C64.5828 26.4163 62.7003 26.5699 60.8162 26.5417C57.9124 26.3995 55.0679 25.9891 52.6214 24.2233C51.9307 23.8236 51.4066 23.189 51.1445 22.4353Z" fill="#F969A6"/>
<path d="M12.9004 78.5002C14.303 78.1056 15.783 78.0757 17.2004 78.4132C17.2853 78.4285 17.366 78.4614 17.4375 78.5096C17.3859 79.1936 17.1975 79.8602 16.8836 80.4701C16.5271 80.8347 16.3307 80.4451 16.0692 80.3045C15.0012 79.7313 14.177 78.7361 12.9004 78.5002Z" fill="#F969A6"/>
<path d="M27.5416 81.6316C26.1286 81.7263 24.7095 81.6118 23.33 81.2919C22.1395 81.0845 20.9295 81.0112 19.7227 81.0736C19.746 80.9289 19.8021 80.7915 19.8866 80.6717C19.9712 80.552 20.0819 80.4532 20.2105 80.3829C20.3391 80.3125 20.482 80.2724 20.6284 80.2658C20.7748 80.2591 20.9208 80.286 21.0553 80.3443C22.2646 80.6526 23.4996 80.9055 24.7127 81.1483C25.8894 81.3866 27.0972 81.4305 28.288 81.278C28.0178 81.5246 27.6525 81.3127 27.5416 81.6316Z" fill="#F969A6"/>
<path d="M35.5596 47.0114C35.4602 47.612 35.1894 47.6738 34.7316 47.3002C33.8492 46.5803 32.956 45.8742 32.0612 45.169C30.951 44.2943 29.6255 43.7747 28.4563 42.9973C28.3209 42.8913 28.1944 42.7744 28.0781 42.6477C29.0771 42.7979 30.0197 43.2054 30.8136 43.8301C32.3934 44.8941 33.9754 45.9545 35.5596 47.0114Z" fill="#FDABE3"/>
<path d="M66.9414 26.1346C67.5967 26.1592 68.4097 25.7267 68.7211 26.7475L68.6488 26.7327L68.3497 26.8213L67.5639 26.8581C67.8701 26.1771 67.0748 26.4393 66.9414 26.1346Z" fill="#F969A6"/>
<path d="M90.1993 46.5541C89.9494 46.3977 89.6994 46.2413 89.4492 46.0849C89.553 45.839 89.5548 45.562 89.4544 45.3147C89.8731 45.4435 90.0915 45.8143 90.3808 46.0944C90.6401 46.3451 90.5098 46.4984 90.1993 46.5541Z" fill="#F969A6"/>
<path d="M93.699 83.2499C93.7987 83.5046 93.7569 83.6748 93.4414 83.6784C93.5275 83.5337 93.6133 83.3918 93.699 83.2499Z" fill="#ECF1FD"/>
<path d="M92.8987 84.752C93.0283 84.9011 92.9149 85.0165 92.845 85.1384C92.8306 85.1633 92.8174 85.1891 92.8045 85.2148C92.757 85.3078 92.7318 85.3041 92.7285 85.1997C92.7853 85.0476 92.842 84.8998 92.8987 84.752Z" fill="#ECF1FD"/>
<path d="M28.431 81.6638C28.3825 81.711 28.3251 81.748 28.2622 81.7727C28.1992 81.7974 28.1319 81.8093 28.0643 81.8077C27.9967 81.806 27.9301 81.7909 27.8684 81.7632C27.8067 81.7355 27.7512 81.6957 27.7051 81.6462C27.9425 81.5726 28.1974 81.5788 28.431 81.6638Z" fill="#F969A6"/>
<path d="M6.22077 86.78C6.47267 86.9757 6.39668 87.2359 6.36043 87.4884C6.15913 87.2824 6.20973 87.0273 6.22077 86.78Z" fill="#F969A6"/>
<path d="M6.3682 87.5214C6.681 87.6883 6.55477 87.9544 6.52147 88.1994C6.39087 87.999 6.33649 87.7584 6.3682 87.5214Z" fill="#F969A6"/>
<path d="M94.2959 82.4841L94.3339 82.5143L94.293 82.4885L94.2959 82.4841Z" fill="#ECF1FD"/>
<path d="M92.5508 85.7816L92.5841 85.78C92.5743 85.791 92.5645 85.8021 92.5549 85.8118L92.5508 85.7816Z" fill="#ECF1FD"/>
<path d="M95.709 81.0465L95.7292 81.121L95.7173 81.0557L95.709 81.0465Z" fill="#ECF1FD"/>
<path d="M93.9137 83.0512L93.9652 83.0585L93.9082 83.0457L93.9137 83.0512Z" fill="#ECF1FD"/>
<path d="M93.2539 84.0527L93.2999 84.0754C93.2859 84.0723 93.2718 84.0693 93.2579 84.0652L93.2539 84.0527Z" fill="#ECF1FD"/>
<path d="M93.0723 84.4156L93.1035 84.457L93.0778 84.4128L93.0723 84.4156Z" fill="#ECF1FD"/>
<path d="M6.37495 85.5183C6.39355 85.5822 6.39033 85.6504 6.36579 85.7122C6.34124 85.7741 6.29678 85.8259 6.23943 85.8596C6.21989 85.7958 6.22267 85.7272 6.2473 85.6652C6.27193 85.6032 6.31695 85.5514 6.37495 85.5183Z" fill="#F969A6"/>
<path d="M6.18179 86.3658L6.21942 86.7744C6.16276 86.7236 6.12739 86.6533 6.12041 86.5775C6.11343 86.5017 6.13536 86.4261 6.18179 86.3658Z" fill="#F969A6"/>
<path d="M90.0236 93.1276C89.9911 93.1118 89.9622 93.0896 89.9385 93.0624C89.9148 93.0351 89.8969 93.0033 89.8859 92.9689C89.8748 92.9345 89.8709 92.8983 89.8742 92.8623C89.8775 92.8263 89.8881 92.7914 89.9053 92.7596C89.9591 92.8025 89.999 92.8603 90.0201 92.9258C90.0411 92.9912 90.0423 93.0615 90.0236 93.1276Z" fill="#F969A6"/>
<path d="M28.9674 81.6829C28.9578 81.7007 28.9435 81.7156 28.9261 81.7258C28.9087 81.736 28.8888 81.7413 28.8686 81.741C28.8484 81.7407 28.8286 81.7349 28.8115 81.7242C28.7944 81.7135 28.7806 81.6982 28.7715 81.6802L28.9674 81.6829Z" fill="#F969A6"/>
<path d="M96.0166 80.8588C95.9537 80.9108 95.8909 80.9627 95.8281 81.0152C95.854 80.9196 95.8965 80.8429 96.0166 80.8588Z" fill="#ECF1FD"/>
<path d="M9.26089 49.9915L9.26898 49.9996C9.24378 50.0048 9.21857 50.0102 9.19336 50.0157L9.26089 49.9915Z" fill="#F969A6"/>
<path d="M89.1992 45.1121C89.2237 45.1158 89.2469 45.1255 89.2668 45.1403C89.2867 45.1551 89.3026 45.1746 89.3132 45.197C89.2751 45.1684 89.2372 45.1402 89.1992 45.1121Z" fill="#F969A6"/>
<path d="M68.3516 26.8213L68.6506 26.7327C68.6193 26.7804 68.5721 26.8156 68.5173 26.8318C68.4626 26.848 68.4038 26.8443 68.3516 26.8213Z" fill="#FDABE3"/>
<path d="M88.4143 60.728C88.0209 60.7275 87.6331 60.634 87.2827 60.4551C86.9323 60.2763 86.629 60.0172 86.3978 59.6989C85.963 59.2153 85.6404 58.6417 85.453 58.0191C85.2656 57.3964 85.218 56.7401 85.3136 56.0969C85.4602 55.5137 85.7847 54.9906 86.2421 54.6002C86.6995 54.2098 87.2671 53.9716 87.8661 53.9185C88.3573 53.8085 88.8701 53.8453 89.3406 54.0245C89.8111 54.2036 90.2185 54.5172 90.5121 54.9261C91.9699 56.679 91.4913 59.5997 89.6124 60.4723C89.2445 60.6669 88.8297 60.7554 88.4143 60.728Z" fill="#ECF1FD"/>
</svg>
