<svg width="33" height="33" viewBox="0 0 33 33" fill="none" xmlns="http://www.w3.org/2000/svg">
<path d="M26.2969 21.6562H22.1719C21.8871 21.6562 21.6562 21.8871 21.6562 22.1719V26.2969C21.6562 26.5816 21.8871 26.8125 22.1719 26.8125H26.2969C26.5816 26.8125 26.8125 26.5816 26.8125 26.2969V22.1719C26.8125 21.8871 26.5816 21.6562 26.2969 21.6562Z" fill="#16425B"/>
<path d="M21.1406 17.5312H18.0469C17.7621 17.5312 17.5312 17.7621 17.5312 18.0469V21.1406C17.5312 21.4254 17.7621 21.6562 18.0469 21.6562H21.1406C21.4254 21.6562 21.6562 21.4254 21.6562 21.1406V18.0469C21.6562 17.7621 21.4254 17.5312 21.1406 17.5312Z" fill="#16425B"/>
<path d="M30.4219 26.8125H27.3281C27.0434 26.8125 26.8125 27.0434 26.8125 27.3281V30.4219C26.8125 30.7066 27.0434 30.9375 27.3281 30.9375H30.4219C30.7066 30.9375 30.9375 30.7066 30.9375 30.4219V27.3281C30.9375 27.0434 30.7066 26.8125 30.4219 26.8125Z" fill="#16425B"/>
<path d="M30.4219 17.5312H28.3594C28.0746 17.5312 27.8438 17.7621 27.8438 18.0469V20.1094C27.8438 20.3941 28.0746 20.625 28.3594 20.625H30.4219C30.7066 20.625 30.9375 20.3941 30.9375 20.1094V18.0469C30.9375 17.7621 30.7066 17.5312 30.4219 17.5312Z" fill="#16425B"/>
<path d="M20.1094 27.8438H18.0469C17.7621 27.8438 17.5312 28.0746 17.5312 28.3594V30.4219C17.5312 30.7066 17.7621 30.9375 18.0469 30.9375H20.1094C20.3941 30.9375 20.625 30.7066 20.625 30.4219V28.3594C20.625 28.0746 20.3941 27.8438 20.1094 27.8438Z" fill="#16425B"/>
<path d="M28.875 2.0625H19.5938C19.0467 2.0625 18.5221 2.2798 18.1353 2.66659C17.7485 3.05339 17.5312 3.57799 17.5312 4.125V13.4062C17.5312 13.9533 17.7485 14.4779 18.1353 14.8647C18.5221 15.2515 19.0467 15.4688 19.5938 15.4688H28.875C29.422 15.4688 29.9466 15.2515 30.3334 14.8647C30.7202 14.4779 30.9375 13.9533 30.9375 13.4062V4.125C30.9375 3.57799 30.7202 3.05339 30.3334 2.66659C29.9466 2.2798 29.422 2.0625 28.875 2.0625ZM26.8125 10.8281C26.8125 10.9649 26.7582 11.096 26.6615 11.1927C26.5648 11.2894 26.4336 11.3438 26.2969 11.3438H22.1719C22.0351 11.3438 21.904 11.2894 21.8073 11.1927C21.7106 11.096 21.6562 10.9649 21.6562 10.8281V6.70312C21.6562 6.56637 21.7106 6.43522 21.8073 6.33852C21.904 6.24182 22.0351 6.1875 22.1719 6.1875H26.2969C26.4336 6.1875 26.5648 6.24182 26.6615 6.33852C26.7582 6.43522 26.8125 6.56637 26.8125 6.70312V10.8281Z" fill="#16425B"/>
<path d="M13.4062 2.0625H4.125C3.57799 2.0625 3.05339 2.2798 2.66659 2.66659C2.2798 3.05339 2.0625 3.57799 2.0625 4.125V13.4062C2.0625 13.9533 2.2798 14.4779 2.66659 14.8647C3.05339 15.2515 3.57799 15.4688 4.125 15.4688H13.4062C13.9533 15.4688 14.4779 15.2515 14.8647 14.8647C15.2515 14.4779 15.4688 13.9533 15.4688 13.4062V4.125C15.4688 3.57799 15.2515 3.05339 14.8647 2.66659C14.4779 2.2798 13.9533 2.0625 13.4062 2.0625ZM11.3438 10.8281C11.3438 10.9649 11.2894 11.096 11.1927 11.1927C11.096 11.2894 10.9649 11.3438 10.8281 11.3438H6.70312C6.56637 11.3438 6.43522 11.2894 6.33852 11.1927C6.24182 11.096 6.1875 10.9649 6.1875 10.8281V6.70312C6.1875 6.56637 6.24182 6.43522 6.33852 6.33852C6.43522 6.24182 6.56637 6.1875 6.70312 6.1875H10.8281C10.9649 6.1875 11.096 6.24182 11.1927 6.33852C11.2894 6.43522 11.3438 6.56637 11.3438 6.70312V10.8281Z" fill="#16425B"/>
<path d="M13.4062 17.5312H4.125C3.57799 17.5312 3.05339 17.7485 2.66659 18.1353C2.2798 18.5221 2.0625 19.0467 2.0625 19.5938V28.875C2.0625 29.422 2.2798 29.9466 2.66659 30.3334C3.05339 30.7202 3.57799 30.9375 4.125 30.9375H13.4062C13.9533 30.9375 14.4779 30.7202 14.8647 30.3334C15.2515 29.9466 15.4688 29.422 15.4688 28.875V19.5938C15.4688 19.0467 15.2515 18.5221 14.8647 18.1353C14.4779 17.7485 13.9533 17.5312 13.4062 17.5312ZM11.3438 26.2969C11.3438 26.4336 11.2894 26.5648 11.1927 26.6615C11.096 26.7582 10.9649 26.8125 10.8281 26.8125H6.70312C6.56637 26.8125 6.43522 26.7582 6.33852 26.6615C6.24182 26.5648 6.1875 26.4336 6.1875 26.2969V22.1719C6.1875 22.0351 6.24182 21.904 6.33852 21.8073C6.43522 21.7106 6.56637 21.6562 6.70312 21.6562H10.8281C10.9649 21.6562 11.096 21.7106 11.1927 21.8073C11.2894 21.904 11.3438 22.0351 11.3438 22.1719V26.2969Z" fill="#16425B"/>
</svg>
